<?xml version="1.0" encoding="UTF-8" standalone="no"?>
<!-- Created with Inkscape (http://www.inkscape.org/) -->

<svg
   version="1.1"
   id="svg2"
   xml:space="preserve"
   width="207.87466"
   height="162.52"
   viewBox="0 0 207.87466 162.52"
   sodipodi:docname="logo_setminas.ai"
   xmlns:inkscape="http://www.inkscape.org/namespaces/inkscape"
   xmlns:sodipodi="http://sodipodi.sourceforge.net/DTD/sodipodi-0.dtd"
   xmlns="http://www.w3.org/2000/svg"
   xmlns:svg="http://www.w3.org/2000/svg"><defs
     id="defs6"><clipPath
       clipPathUnits="userSpaceOnUse"
       id="clipPath16"><path
         d="M 0,121.89 H 155.906 V 0 H 0 Z"
         id="path14" /></clipPath><clipPath
       clipPathUnits="userSpaceOnUse"
       id="clipPath360"><path
         d="m 44.806,112.846 h 66.806 V 45.4623 H 44.806 Z"
         id="path358" /></clipPath><radialGradient
       fx="0"
       fy="0"
       cx="0"
       cy="0"
       r="1"
       gradientUnits="userSpaceOnUse"
       gradientTransform="matrix(89.626465,0,0,-89.626465,85.386848,93.904732)"
       spreadMethod="pad"
       id="radialGradient390"><stop
         style="stop-opacity:1;stop-color:#1c98cf"
         offset="0"
         id="stop382" /><stop
         style="stop-opacity:1;stop-color:#1c98cf"
         offset="0.032967"
         id="stop384" /><stop
         style="stop-opacity:1;stop-color:#0c1d3f"
         offset="0.5"
         id="stop386" /><stop
         style="stop-opacity:1;stop-color:#0c1d3f"
         offset="1"
         id="stop388" /></radialGradient><radialGradient
       fx="0"
       fy="0"
       cx="0"
       cy="0"
       r="1"
       gradientUnits="userSpaceOnUse"
       gradientTransform="matrix(73.721634,0,0,-73.721634,69.905327,82.937714)"
       spreadMethod="pad"
       id="radialGradient414"><stop
         style="stop-opacity:1;stop-color:#1c98cf"
         offset="0"
         id="stop406" /><stop
         style="stop-opacity:1;stop-color:#1c98cf"
         offset="0.0549451"
         id="stop408" /><stop
         style="stop-opacity:1;stop-color:#0c1d3f"
         offset="0.5"
         id="stop410" /><stop
         style="stop-opacity:1;stop-color:#0c1d3f"
         offset="1"
         id="stop412" /></radialGradient><radialGradient
       fx="0"
       fy="0"
       cx="0"
       cy="0"
       r="1"
       gradientUnits="userSpaceOnUse"
       gradientTransform="matrix(62.636837,0,0,-62.636837,67.300972,76.809334)"
       spreadMethod="pad"
       id="radialGradient438"><stop
         style="stop-opacity:1;stop-color:#0b71a0"
         offset="0"
         id="stop430" /><stop
         style="stop-opacity:1;stop-color:#0b71a0"
         offset="0.285714"
         id="stop432" /><stop
         style="stop-opacity:1;stop-color:#162f54"
         offset="0.434066"
         id="stop434" /><stop
         style="stop-opacity:1;stop-color:#162f54"
         offset="1"
         id="stop436" /></radialGradient><radialGradient
       fx="0"
       fy="0"
       cx="0"
       cy="0"
       r="1"
       gradientUnits="userSpaceOnUse"
       gradientTransform="matrix(43.317512,0,0,-43.317512,89.259659,100.99891)"
       spreadMethod="pad"
       id="radialGradient464"><stop
         style="stop-opacity:1;stop-color:#179ad0"
         offset="0"
         id="stop454" /><stop
         style="stop-opacity:1;stop-color:#179ad0"
         offset="0.0604396"
         id="stop456" /><stop
         style="stop-opacity:1;stop-color:#179ad0"
         offset="0.13164616"
         id="stop458" /><stop
         style="stop-opacity:1;stop-color:#0c1d3f"
         offset="0.642857"
         id="stop460" /><stop
         style="stop-opacity:1;stop-color:#0c1d3f"
         offset="1"
         id="stop462" /></radialGradient><clipPath
       clipPathUnits="userSpaceOnUse"
       id="clipPath474"><path
         d="M 0,121.89 H 155.906 V 0 H 0 Z"
         id="path472" /></clipPath><clipPath
       clipPathUnits="userSpaceOnUse"
       id="clipPath482"><path
         d="M 47.5737,103.119 H 108.775 V 54.9715 H 47.5737 Z"
         id="path480" /></clipPath></defs><sodipodi:namedview
     id="namedview4"
     pagecolor="#ffffff"
     bordercolor="#666666"
     borderopacity="1.0"
     inkscape:pageshadow="2"
     inkscape:pageopacity="0.0"
     inkscape:pagecheckerboard="0" /><g
     id="g8"
     inkscape:groupmode="layer"
     inkscape:label="logo_setminas"
     transform="matrix(1.3333333,0,0,-1.3333333,0,162.52)"><g
       id="g10"><g
         id="g12"
         clip-path="url(#clipPath16)"><g
           id="g18"
           transform="translate(83.0762,110.8867)"><path
             d="m 0,0 c 9.974,0 18.069,-6.092 18.069,-13.611 0,-7.515 -8.095,-13.612 -18.069,-13.612 -9.974,0 -18.066,6.097 -18.066,13.612 C -18.066,-6.092 -9.974,0 0,0"
             style="fill:#b9bdbf;fill-opacity:1;fill-rule:evenodd;stroke:none"
             id="path20" /></g><g
           id="g22"
           transform="translate(78.3854,108.2327)"><path
             d="m 0,0 c 6.722,0 12.177,-2.537 12.177,-5.662 0,-3.121 -5.455,-5.66 -12.177,-5.66 -6.724,0 -12.178,2.539 -12.178,5.66 C -12.178,-2.537 -6.724,0 0,0"
             style="fill:#ffffff;fill-opacity:1;fill-rule:evenodd;stroke:none"
             id="path24" /></g><g
           id="g26"
           transform="translate(78.4733,112.8835)"><path
             d="m 0,0 c 18.614,0 33.712,-15.095 33.712,-33.71 0,-18.614 -15.098,-33.711 -33.712,-33.711 -18.621,0 -33.713,15.097 -33.713,33.711 C -33.713,-15.095 -18.621,0 0,0"
             style="fill:#a5aaab;fill-opacity:1;fill-rule:evenodd;stroke:none"
             id="path28" /></g><g
           id="g30"
           transform="translate(78.5281,112.8562)"><path
             d="m 0,0 c 18.507,0 33.514,-14.985 33.514,-33.461 0,-18.478 -15.007,-33.461 -33.514,-33.461 -18.506,0 -33.517,14.983 -33.517,33.461 C -33.517,-14.985 -18.506,0 0,0"
             style="fill:#a5aaab;fill-opacity:1;fill-rule:evenodd;stroke:none"
             id="path32" /></g><g
           id="g34"
           transform="translate(78.5798,112.8266)"><path
             d="m 0,0 c 18.402,0 33.326,-14.875 33.326,-33.212 0,-18.336 -14.924,-33.207 -33.326,-33.207 -18.395,0 -33.311,14.871 -33.311,33.207 C -33.311,-14.875 -18.395,0 0,0"
             style="fill:#a7abae;fill-opacity:1;fill-rule:evenodd;stroke:none"
             id="path36" /></g><g
           id="g38"
           transform="translate(78.642,112.7954)"><path
             d="m 0,0 c 18.285,0 33.12,-14.76 33.12,-32.961 0,-18.198 -14.835,-32.96 -33.12,-32.96 -18.294,0 -33.128,14.762 -33.128,32.96 C -33.128,-14.76 -18.294,0 0,0"
             style="fill:#a7abae;fill-opacity:1;fill-rule:evenodd;stroke:none"
             id="path40" /></g><g
           id="g42"
           transform="translate(78.6979,112.7658)"><path
             d="M 0,0 C 18.18,0 32.927,-14.65 32.927,-32.711 32.927,-50.769 18.18,-65.42 0,-65.42 c -18.184,0 -32.931,14.651 -32.931,32.709 C -32.931,-14.65 -18.184,0 0,0"
             style="fill:#a8adae;fill-opacity:1;fill-rule:evenodd;stroke:none"
             id="path44" /></g><g
           id="g46"
           transform="translate(78.7526,112.7335)"><path
             d="m 0,0 c 18.074,0 32.732,-14.535 32.732,-32.458 0,-17.922 -14.658,-32.46 -32.732,-32.46 -18.079,0 -32.731,14.538 -32.731,32.46 C -32.731,-14.535 -18.079,0 0,0"
             style="fill:#a8adae;fill-opacity:1;fill-rule:evenodd;stroke:none"
             id="path48" /></g><g
           id="g50"
           transform="translate(78.8047,112.7061)"><path
             d="M 0,0 C 17.97,0 32.544,-14.423 32.544,-32.211 32.544,-49.995 17.97,-64.416 0,-64.416 c -17.961,0 -32.535,14.421 -32.535,32.205 C -32.535,-14.423 -17.961,0 0,0"
             style="fill:#aaaeb1;fill-opacity:1;fill-rule:evenodd;stroke:none"
             id="path52" /></g><g
           id="g54"
           transform="translate(78.8638,112.6749)"><path
             d="m 0,0 c 17.857,0 32.34,-14.306 32.34,-31.957 0,-17.647 -14.483,-31.957 -32.34,-31.957 -17.857,0 -32.336,14.31 -32.336,31.957 C -32.336,-14.306 -17.857,0 0,0"
             style="fill:#aaaeb1;fill-opacity:1;fill-rule:evenodd;stroke:none"
             id="path56" /></g><g
           id="g58"
           transform="translate(78.923,112.6491)"><path
             d="m 0,0 c 17.746,0 32.141,-14.202 32.141,-31.713 0,-17.505 -14.395,-31.704 -32.141,-31.704 -17.751,0 -32.142,14.199 -32.142,31.704 C -32.142,-14.202 -17.751,0 0,0"
             style="fill:#abb0b2;fill-opacity:1;fill-rule:evenodd;stroke:none"
             id="path60" /></g><g
           id="g62"
           transform="translate(78.9774,112.6185)"><path
             d="M 0,0 C 17.64,0 31.943,-14.089 31.943,-31.462 31.943,-48.831 17.64,-62.914 0,-62.914 c -17.641,0 -31.948,14.083 -31.948,31.452 C -31.948,-14.089 -17.641,0 0,0"
             style="fill:#abb0b2;fill-opacity:1;fill-rule:evenodd;stroke:none"
             id="path64" /></g><g
           id="g66"
           transform="translate(79.0308,112.5889)"><path
             d="m 0,0 c 17.537,0 31.752,-13.976 31.752,-31.207 0,-17.234 -14.215,-31.207 -31.752,-31.207 -17.529,0 -31.751,13.973 -31.751,31.207 C -31.751,-13.976 -17.529,0 0,0"
             style="fill:#aeb2b5;fill-opacity:1;fill-rule:evenodd;stroke:none"
             id="path68" /></g><g
           id="g70"
           transform="translate(79.0883,112.5538)"><path
             d="m 0,0 c 17.425,0 31.558,-13.858 31.558,-30.955 0,-17.092 -14.133,-30.956 -31.558,-30.956 -17.423,0 -31.557,13.864 -31.557,30.956 C -31.557,-13.858 -17.423,0 0,0"
             style="fill:#aeb2b5;fill-opacity:1;fill-rule:evenodd;stroke:none"
             id="path72" /></g><g
           id="g74"
           transform="translate(79.1475,112.527)"><path
             d="M 0,0 C 17.313,0 31.356,-13.751 31.356,-30.706 31.356,-47.66 17.313,-61.414 0,-61.414 c -17.323,0 -31.362,13.754 -31.362,30.708 C -31.362,-13.751 -17.323,0 0,0"
             style="fill:#afb4b5;fill-opacity:1;fill-rule:evenodd;stroke:none"
             id="path76" /></g><g
           id="g78"
           transform="translate(79.1995,112.4958)"><path
             d="M 0,0 C 17.209,0 31.167,-13.635 31.167,-30.456 31.167,-47.27 17.209,-60.909 0,-60.909 c -17.205,0 -31.163,13.639 -31.163,30.453 C -31.163,-13.635 -17.205,0 0,0"
             style="fill:#afb4b5;fill-opacity:1;fill-rule:evenodd;stroke:none"
             id="path80" /></g><g
           id="g82"
           transform="translate(79.2554,112.4646)"><path
             d="m 0,0 c 17.101,0 30.967,-13.522 30.967,-30.203 0,-16.68 -13.866,-30.203 -30.967,-30.203 -17.098,0 -30.967,13.523 -30.967,30.203 C -30.967,-13.522 -17.098,0 0,0"
             style="fill:#b2b6b8;fill-opacity:1;fill-rule:evenodd;stroke:none"
             id="path84" /></g><g
           id="g86"
           transform="translate(79.3145,112.4366)"><path
             d="M 0,0 C 16.99,0 30.769,-13.413 30.769,-29.951 30.769,-46.497 16.99,-59.908 0,-59.908 c -16.991,0 -30.77,13.411 -30.77,29.957 C -30.77,-13.413 -16.991,0 0,0"
             style="fill:#b2b6b8;fill-opacity:1;fill-rule:evenodd;stroke:none"
             id="path88" /></g><g
           id="g90"
           transform="translate(79.3666,112.406)"><path
             d="m 0,0 c 16.889,0 30.575,-13.303 30.575,-29.703 0,-16.401 -13.686,-29.704 -30.575,-29.704 -16.879,0 -30.574,13.303 -30.574,29.704 C -30.574,-13.303 -16.879,0 0,0"
             style="fill:#b5b9bc;fill-opacity:1;fill-rule:evenodd;stroke:none"
             id="path92" /></g><g
           id="g94"
           transform="translate(79.4285,112.3786)"><path
             d="M 0,0 C 16.771,0 30.377,-13.191 30.377,-29.455 30.377,-45.72 16.771,-58.907 0,-58.907 c -16.778,0 -30.384,13.187 -30.384,29.452 C -30.384,-13.191 -16.778,0 0,0"
             style="fill:#b5b9bc;fill-opacity:1;fill-rule:evenodd;stroke:none"
             id="path96" /></g><g
           id="g98"
           transform="translate(79.4832,112.3474)"><path
             d="m 0,0 c 16.664,0 30.182,-13.079 30.182,-29.203 0,-16.125 -13.518,-29.204 -30.182,-29.204 -16.667,0 -30.185,13.079 -30.185,29.204 C -30.185,-13.079 -16.667,0 0,0"
             style="fill:#b8bbbd;fill-opacity:1;fill-rule:evenodd;stroke:none"
             id="path100" /></g><g
           id="g102"
           transform="translate(79.5394,112.3194)"><path
             d="m 0,0 c 16.559,0 29.982,-12.965 29.982,-28.952 0,-15.991 -13.423,-28.956 -29.982,-28.956 -16.561,0 -29.986,12.965 -29.986,28.956 C -29.986,-12.965 -16.561,0 0,0"
             style="fill:#b8bbbd;fill-opacity:1;fill-rule:evenodd;stroke:none"
             id="path104" /></g><g
           id="g106"
           transform="translate(79.5941,112.2882)"><path
             d="m 0,0 c 16.449,0 29.79,-12.852 29.79,-28.705 0,-15.847 -13.341,-28.699 -29.79,-28.699 -16.448,0 -29.79,12.852 -29.79,28.699 C -29.79,-12.852 -16.448,0 0,0"
             style="fill:#b9bdbf;fill-opacity:1;fill-rule:evenodd;stroke:none"
             id="path108" /></g><g
           id="g110"
           transform="translate(79.653,112.2575)"><path
             d="m 0,0 c 16.337,0 29.589,-12.743 29.589,-28.451 0,-15.71 -13.252,-28.453 -29.589,-28.453 -16.344,0 -29.599,12.743 -29.599,28.453 C -29.599,-12.743 -16.344,0 0,0"
             style="fill:#b9bdbf;fill-opacity:1;fill-rule:evenodd;stroke:none"
             id="path112" /></g><g
           id="g114"
           transform="translate(79.705,112.2313)"><path
             d="m 0,0 c 16.233,0 29.4,-12.634 29.4,-28.205 0,-15.573 -13.167,-28.2 -29.4,-28.2 -16.231,0 -29.4,12.627 -29.4,28.2 C -29.4,-12.634 -16.231,0 0,0"
             style="fill:#babfc0;fill-opacity:1;fill-rule:evenodd;stroke:none"
             id="path116" /></g><g
           id="g118"
           transform="translate(79.7612,112.2017)"><path
             d="M 0,0 C 16.126,0 29.202,-12.519 29.202,-27.955 29.202,-43.386 16.126,-55.91 0,-55.91 c -16.124,0 -29.201,12.524 -29.201,27.955 C -29.201,-12.519 -16.124,0 0,0"
             style="fill:#babfc0;fill-opacity:1;fill-rule:evenodd;stroke:none"
             id="path120" /></g><g
           id="g122"
           transform="translate(79.8159,112.1732)"><path
             d="m 0,0 c 16.019,0 29.011,-12.41 29.011,-27.706 0,-15.297 -12.992,-27.702 -29.011,-27.702 -16.012,0 -29.005,12.405 -29.005,27.702 C -29.005,-12.41 -16.012,0 0,0"
             style="fill:#bec1c2;fill-opacity:1;fill-rule:evenodd;stroke:none"
             id="path124" /></g><g
           id="g126"
           transform="translate(79.8781,112.1398)"><path
             d="m 0,0 c 15.905,0 28.806,-12.295 28.806,-27.454 0,-15.157 -12.901,-27.451 -28.806,-27.451 -15.914,0 -28.815,12.294 -28.815,27.451 C -28.815,-12.295 -15.914,0 0,0"
             style="fill:#bec1c2;fill-opacity:1;fill-rule:evenodd;stroke:none"
             id="path128" /></g><g
           id="g130"
           transform="translate(79.9299,112.1124)"><path
             d="M 0,0 C 15.8,0 28.613,-12.185 28.613,-27.205 28.613,-42.224 15.8,-54.403 0,-54.403 c -15.8,0 -28.613,12.179 -28.613,27.198 C -28.613,-12.185 -15.8,0 0,0"
             style="fill:#bfc3c4;fill-opacity:1;fill-rule:evenodd;stroke:none"
             id="path132" /></g><g
           id="g134"
           transform="translate(79.9887,112.0801)"><path
             d="M 0,0 C 15.689,0 28.417,-12.068 28.417,-26.949 28.417,-41.833 15.689,-53.9 0,-53.9 c -15.696,0 -28.421,12.067 -28.421,26.951 C -28.421,-12.068 -15.696,0 0,0"
             style="fill:#bfc3c4;fill-opacity:1;fill-rule:evenodd;stroke:none"
             id="path136" /></g><g
           id="g138"
           transform="translate(80.0408,112.0505)"><path
             d="m 0,0 c 15.585,0 28.228,-11.956 28.228,-26.698 0,-14.747 -12.643,-26.703 -28.228,-26.703 -15.581,0 -28.221,11.956 -28.221,26.703 C -28.221,-11.956 -15.581,0 0,0"
             style="fill:#c2c5c6;fill-opacity:1;fill-rule:evenodd;stroke:none"
             id="path140" /></g><g
           id="g142"
           transform="translate(80.0969,112.0199)"><path
             d="m 0,0 c 15.477,0 28.03,-11.844 28.03,-26.449 0,-14.603 -12.553,-26.452 -28.03,-26.452 -15.471,0 -28.024,11.849 -28.024,26.452 C -28.024,-11.844 -15.471,0 0,0"
             style="fill:#c2c5c6;fill-opacity:1;fill-rule:evenodd;stroke:none"
             id="path144" /></g><g
           id="g146"
           transform="translate(80.1546,111.9903)"><path
             d="M 0,0 C 15.37,0 27.831,-11.731 27.831,-26.196 27.831,-40.669 15.37,-52.4 0,-52.4 c -15.369,0 -27.831,11.731 -27.831,26.204 C -27.831,-11.731 -15.369,0 0,0"
             style="fill:#c4c7c9;fill-opacity:1;fill-rule:evenodd;stroke:none"
             id="path148" /></g><g
           id="g150"
           transform="translate(80.2105,111.9613)"><path
             d="m 0,0 c 15.263,0 27.635,-11.62 27.635,-25.95 0,-14.328 -12.372,-25.953 -27.635,-25.953 -15.259,0 -27.632,11.625 -27.632,25.953 C -27.632,-11.62 -15.259,0 0,0"
             style="fill:#c4c7c9;fill-opacity:1;fill-rule:evenodd;stroke:none"
             id="path152" /></g><g
           id="g154"
           transform="translate(80.2653,111.93)"><path
             d="m 0,0 c 15.154,0 27.438,-11.508 27.438,-25.699 0,-14.187 -12.284,-25.697 -27.438,-25.697 -15.147,0 -27.436,11.51 -27.436,25.697 C -27.436,-11.508 -15.147,0 0,0"
             style="fill:#c7cacb;fill-opacity:1;fill-rule:evenodd;stroke:none"
             id="path156" /></g><g
           id="g158"
           transform="translate(80.3244,111.901)"><path
             d="m 0,0 c 15.044,0 27.242,-11.395 27.242,-25.448 0,-14.054 -12.198,-25.448 -27.242,-25.448 -15.043,0 -27.245,11.394 -27.245,25.448 C -27.245,-11.395 -15.043,0 0,0"
             style="fill:#c7cacb;fill-opacity:1;fill-rule:evenodd;stroke:none"
             id="path160" /></g><g
           id="g162"
           transform="translate(80.3809,111.8714)"><path
             d="m 0,0 c 14.928,0 27.044,-11.284 27.044,-25.197 0,-13.917 -12.116,-25.199 -27.044,-25.199 -14.937,0 -27.046,11.282 -27.046,25.199 C -27.046,-11.284 -14.937,0 0,0"
             style="fill:#c7cacb;fill-opacity:1;fill-rule:evenodd;stroke:none"
             id="path164" /></g><g
           id="g166"
           transform="translate(80.4356,111.8402)"><path
             d="m 0,0 c 14.829,0 26.85,-11.17 26.85,-24.949 0,-13.773 -12.021,-24.945 -26.85,-24.945 -14.829,0 -26.853,11.172 -26.853,24.945 C -26.853,-11.17 -14.829,0 0,0"
             style="fill:#c8cccd;fill-opacity:1;fill-rule:evenodd;stroke:none"
             id="path168" /></g><g
           id="g170"
           transform="translate(80.4915,111.8129)"><path
             d="m 0,0 c 14.721,0 26.657,-11.063 26.657,-24.7 0,-13.635 -11.936,-24.696 -26.657,-24.696 -14.715,0 -26.655,11.061 -26.655,24.696 0,13.637 11.94,24.7 26.655,24.7"
             style="fill:#cacdce;fill-opacity:1;fill-rule:evenodd;stroke:none"
             id="path172" /></g><g
           id="g174"
           transform="translate(80.5493,111.7833)"><path
             d="m 0,0 c 14.61,0 26.455,-10.947 26.455,-24.448 0,-13.5 -11.845,-24.451 -26.455,-24.451 -14.61,0 -26.458,10.951 -26.458,24.451 C -26.458,-10.948 -14.61,0 0,0"
             style="fill:#cacdce;fill-opacity:1;fill-rule:evenodd;stroke:none"
             id="path176" /></g><g
           id="g178"
           transform="translate(80.6084,111.7537)"><path
             d="m 0,0 c 14.496,0 26.256,-10.834 26.256,-24.195 0,-13.367 -11.76,-24.199 -26.256,-24.199 -14.506,0 -26.266,10.832 -26.266,24.199 C -26.266,-10.834 -14.506,0 0,0"
             style="fill:#cacdce;fill-opacity:1;fill-rule:evenodd;stroke:none"
             id="path180" /></g><g
           id="g182"
           transform="translate(80.6602,111.723)"><path
             d="m 0,0 c 14.392,0 26.068,-10.724 26.068,-23.951 0,-13.218 -11.676,-23.941 -26.068,-23.941 -14.391,0 -26.067,10.723 -26.067,23.941 C -26.067,-10.724 -14.391,0 0,0"
             style="fill:#cdd0d1;fill-opacity:1;fill-rule:evenodd;stroke:none"
             id="path184" /></g><g
           id="g186"
           transform="translate(80.7166,111.6935)"><path
             d="m 0,0 c 14.283,0 25.871,-10.611 25.871,-23.699 0,-13.082 -11.588,-23.693 -25.871,-23.693 -14.284,0 -25.872,10.611 -25.872,23.693 C -25.872,-10.611 -14.284,0 0,0"
             style="fill:#cfd2d3;fill-opacity:1;fill-rule:evenodd;stroke:none"
             id="path188" /></g><g
           id="g190"
           transform="translate(80.7713,111.6622)"><path
             d="m 0,0 c 14.183,0 25.675,-10.495 25.675,-23.444 0,-12.947 -11.492,-23.449 -25.675,-23.449 -14.176,0 -25.673,10.502 -25.673,23.449 C -25.673,-10.495 -14.176,0 0,0"
             style="fill:#cfd2d3;fill-opacity:1;fill-rule:evenodd;stroke:none"
             id="path192" /></g><g
           id="g194"
           transform="translate(80.8302,111.6338)"><path
             d="m 0,0 c 14.066,0 25.474,-10.387 25.474,-23.195 0,-12.811 -11.408,-23.196 -25.474,-23.196 -14.07,0 -25.477,10.385 -25.477,23.196 C -25.477,-10.387 -14.07,0 0,0"
             style="fill:#cfd2d3;fill-opacity:1;fill-rule:evenodd;stroke:none"
             id="path196" /></g><g
           id="g198"
           transform="translate(80.885,111.6042)"><path
             d="m 0,0 c 13.961,0 25.282,-10.278 25.282,-22.947 0,-12.671 -11.321,-22.948 -25.282,-22.948 -13.96,0 -25.281,10.277 -25.281,22.948 C -25.281,-10.278 -13.96,0 0,0"
             style="fill:#d2d4d4;fill-opacity:1;fill-rule:evenodd;stroke:none"
             id="path200" /></g><g
           id="g202"
           transform="translate(80.9411,111.5757)"><path
             d="M 0,0 C 13.851,0 25.085,-10.165 25.085,-22.699 25.085,-35.23 13.851,-45.393 0,-45.393 c -13.854,0 -25.086,10.163 -25.086,22.694 C -25.086,-10.165 -13.854,0 0,0"
             style="fill:#d3d6d6;fill-opacity:1;fill-rule:evenodd;stroke:none"
             id="path204" /></g><g
           id="g206"
           transform="translate(80.9959,111.5434)"><path
             d="m 0,0 c 13.743,0 24.888,-10.054 24.888,-22.445 0,-12.393 -11.145,-22.443 -24.888,-22.443 -13.745,0 -24.889,10.05 -24.889,22.443 C -24.889,-10.054 -13.745,0 0,0"
             style="fill:#d3d6d6;fill-opacity:1;fill-rule:evenodd;stroke:none"
             id="path208" /></g><g
           id="g210"
           transform="translate(81.055,111.516)"><path
             d="m 0,0 c 13.634,0 24.692,-9.941 24.692,-22.196 0,-12.256 -11.058,-22.195 -24.692,-22.195 -13.639,0 -24.692,9.939 -24.692,22.195 C -24.692,-9.941 -13.639,0 0,0"
             style="fill:#d3d6d6;fill-opacity:1;fill-rule:evenodd;stroke:none"
             id="path212" /></g><g
           id="g214"
           transform="translate(81.1112,111.4864)"><path
             d="m 0,0 c 13.527,0 24.494,-9.828 24.494,-21.946 0,-12.116 -10.967,-21.946 -24.494,-21.946 -13.528,0 -24.503,9.83 -24.503,21.946 C -24.503,-9.828 -13.528,0 0,0"
             style="fill:#d4d8d8;fill-opacity:1;fill-rule:evenodd;stroke:none"
             id="path216" /></g><g
           id="g218"
           transform="translate(81.1689,111.4519)"><path
             d="m 0,0 c 13.417,0 24.297,-9.715 24.297,-21.691 0,-11.976 -10.88,-21.694 -24.297,-21.694 -13.423,0 -24.306,9.718 -24.306,21.694 C -24.306,-9.715 -13.423,0 0,0"
             style="fill:#d8dada;fill-opacity:1;fill-rule:evenodd;stroke:none"
             id="path220" /></g><g
           id="g222"
           transform="translate(81.2248,111.4262)"><path
             d="m 0,0 c 13.306,0 24.101,-9.602 24.101,-21.446 0,-11.838 -10.795,-21.439 -24.101,-21.439 -13.316,0 -24.108,9.601 -24.108,21.439 C -24.108,-9.602 -13.316,0 0,0"
             style="fill:#d8dada;fill-opacity:1;fill-rule:evenodd;stroke:none"
             id="path224" /></g><g
           id="g226"
           transform="translate(81.2826,111.3966)"><path
             d="M 0,0 C 13.2,0 23.902,-9.489 23.902,-21.196 23.902,-32.897 13.2,-42.391 0,-42.391 c -13.207,0 -23.915,9.494 -23.915,21.195 C -23.915,-9.489 -13.207,0 0,0"
             style="fill:#d8dada;fill-opacity:1;fill-rule:evenodd;stroke:none"
             id="path228" /></g><g
           id="g230"
           transform="translate(81.336,111.3654)"><path
             d="m 0,0 c 13.093,0 23.709,-9.378 23.709,-20.942 0,-11.564 -10.616,-20.943 -23.709,-20.943 -13.097,0 -23.713,9.379 -23.713,20.943 C -23.713,-9.378 -13.097,0 0,0"
             style="fill:#d9dcdc;fill-opacity:1;fill-rule:evenodd;stroke:none"
             id="path232" /></g><g
           id="g234"
           transform="translate(81.3877,111.3347)"><path
             d="M 0,0 C 12.986,0 23.52,-9.264 23.52,-20.692 23.52,-32.12 12.986,-41.385 0,-41.385 c -12.983,0 -23.515,9.265 -23.515,20.693 C -23.515,-9.264 -12.983,0 0,0"
             style="fill:#d9dcdc;fill-opacity:1;fill-rule:evenodd;stroke:none"
             id="path236" /></g><g
           id="g238"
           transform="translate(81.4469,111.3073)"><path
             d="m 0,0 c 12.878,0 23.322,-9.157 23.322,-20.445 0,-11.286 -10.444,-20.439 -23.322,-20.439 -12.875,0 -23.323,9.153 -23.323,20.439 C -23.323,-9.157 -12.875,0 0,0"
             style="fill:#dbdedf;fill-opacity:1;fill-rule:evenodd;stroke:none"
             id="path240" /></g><g
           id="g242"
           transform="translate(81.5014,111.2761)"><path
             d="m 0,0 c 12.772,0 23.126,-9.041 23.126,-20.192 0,-11.147 -10.354,-20.195 -23.126,-20.195 -12.771,0 -23.123,9.048 -23.123,20.195 C -23.123,-9.041 -12.771,0 0,0"
             style="fill:#dedfe0;fill-opacity:1;fill-rule:evenodd;stroke:none"
             id="path244" /></g><g
           id="g246"
           transform="translate(81.5578,111.2465)"><path
             d="m 0,0 c 12.663,0 22.927,-8.931 22.927,-19.939 0,-11.014 -10.264,-19.942 -22.927,-19.942 -12.661,0 -22.931,8.928 -22.931,19.942 C -22.931,-8.931 -12.661,0 0,0"
             style="fill:#dedfe0;fill-opacity:1;fill-rule:evenodd;stroke:none"
             id="path248" /></g><g
           id="g250"
           transform="translate(81.6153,111.2142)"><path
             d="M 0,0 C 12.55,0 22.733,-8.816 22.733,-19.688 22.733,-30.563 12.55,-39.379 0,-39.379 c -12.553,0 -22.734,8.816 -22.734,19.691 C -22.734,-8.816 -12.553,0 0,0"
             style="fill:#dedfe0;fill-opacity:1;fill-rule:evenodd;stroke:none"
             id="path252" /></g><g
           id="g254"
           transform="translate(81.6717,111.1896)"><path
             d="m 0,0 c 12.441,0 22.532,-8.706 22.532,-19.442 0,-10.736 -10.091,-19.443 -22.532,-19.443 -12.449,0 -22.54,8.707 -22.54,19.443 C -22.54,-8.706 -12.449,0 0,0"
             style="fill:#e1e2e2;fill-opacity:1;fill-rule:evenodd;stroke:none"
             id="path256" /></g><g
           id="g258"
           transform="translate(81.7235,111.1562)"><path
             d="m 0,0 c 12.338,0 22.34,-8.593 22.34,-19.188 0,-10.6 -10.002,-19.19 -22.34,-19.19 -12.334,0 -22.338,8.59 -22.338,19.19 C -22.338,-8.593 -12.334,0 0,0"
             style="fill:#e3e3e4;fill-opacity:1;fill-rule:evenodd;stroke:none"
             id="path260" /></g><g
           id="g262"
           transform="translate(81.7823,111.1294)"><path
             d="m 0,0 c 12.226,0 22.145,-8.482 22.145,-18.944 0,-10.455 -9.919,-18.937 -22.145,-18.937 -12.227,0 -22.144,8.482 -22.144,18.937 C -22.144,-8.482 -12.227,0 0,0"
             style="fill:#e3e3e4;fill-opacity:1;fill-rule:evenodd;stroke:none"
             id="path264" /></g><g
           id="g266"
           transform="translate(81.8401,111.0938)"><path
             d="m 0,0 c 12.119,0 21.95,-8.365 21.95,-18.688 0,-10.318 -9.831,-18.688 -21.95,-18.688 -12.122,0 -21.949,8.371 -21.949,18.688 C -21.949,-8.365 -12.122,0 0,0"
             style="fill:#e3e3e4;fill-opacity:1;fill-rule:evenodd;stroke:none"
             id="path268" /></g><g
           id="g270"
           transform="translate(81.8992,111.0697)"><path
             d="m 0,0 c 12.008,0 21.747,-8.257 21.747,-18.44 0,-10.183 -9.739,-18.439 -21.747,-18.439 -12.014,0 -21.757,8.256 -21.757,18.435 C -21.757,-8.257 -12.014,0 0,0"
             style="fill:#e6e6e6;fill-opacity:1;fill-rule:evenodd;stroke:none"
             id="path272" /></g><g
           id="g274"
           transform="translate(81.951,111.0401)"><path
             d="M 0,0 C 11.904,0 21.555,-8.147 21.555,-18.191 21.555,-28.232 11.904,-36.38 0,-36.38 c -11.897,0 -21.554,8.148 -21.554,18.189 C -21.554,-8.147 -11.897,0 0,0"
             style="fill:#e6e8e7;fill-opacity:1;fill-rule:evenodd;stroke:none"
             id="path276" /></g><g
           id="g278"
           transform="translate(82.0074,111.0089)"><path
             d="m 0,0 c 11.793,0 21.362,-8.034 21.362,-17.942 0,-9.902 -9.569,-17.937 -21.362,-17.937 -11.793,0 -21.36,8.035 -21.36,17.937 C -21.36,-8.034 -11.793,0 0,0"
             style="fill:#e6e8e7;fill-opacity:1;fill-rule:evenodd;stroke:none"
             id="path280" /></g><g
           id="g282"
           transform="translate(82.0622,110.9793)"><path
             d="m 0,0 c 11.685,0 21.168,-7.924 21.168,-17.687 0,-9.771 -9.483,-17.691 -21.168,-17.691 -11.686,0 -21.164,7.92 -21.164,17.691 C -21.164,-7.924 -11.686,0 0,0"
             style="fill:#e6e8e7;fill-opacity:1;fill-rule:evenodd;stroke:none"
             id="path284" /></g><g
           id="g286"
           transform="translate(82.121,110.9519)"><path
             d="m 0,0 c 11.574,0 20.968,-7.81 20.968,-17.442 0,-9.63 -9.394,-17.438 -20.968,-17.438 -11.577,0 -20.97,7.808 -20.97,17.438 C -20.97,-7.81 -11.577,0 0,0"
             style="fill:#e9eae9;fill-opacity:1;fill-rule:evenodd;stroke:none"
             id="path288" /></g><g
           id="g290"
           transform="translate(82.1728,110.9174)"><path
             d="m 0,0 c 11.474,0 20.776,-7.695 20.776,-17.187 0,-9.492 -9.302,-17.191 -20.776,-17.191 -11.469,0 -20.769,7.699 -20.769,17.191 C -20.769,-7.695 -11.469,0 0,0"
             style="fill:#ececeb;fill-opacity:1;fill-rule:evenodd;stroke:none"
             id="path292" /></g><g
           id="g294"
           transform="translate(82.2319,110.89)"><path
             d="m 0,0 c 11.36,0 20.573,-7.587 20.573,-16.938 0,-9.353 -9.213,-16.936 -20.573,-16.936 -11.362,0 -20.577,7.583 -20.577,16.936 C -20.577,-7.587 -11.362,0 0,0"
             style="fill:#ececeb;fill-opacity:1;fill-rule:evenodd;stroke:none"
             id="path296" /></g><g
           id="g298"
           transform="translate(82.2884,110.8594)"><path
             d="m 0,0 c 11.254,0 20.377,-7.473 20.377,-16.689 0,-9.212 -9.123,-16.686 -20.377,-16.686 -11.256,0 -20.381,7.474 -20.381,16.686 C -20.381,-7.473 -11.256,0 0,0"
             style="fill:#ececeb;fill-opacity:1;fill-rule:evenodd;stroke:none"
             id="path300" /></g><g
           id="g302"
           transform="translate(82.3459,110.8325)"><path
             d="m 0,0 c 11.145,0 20.182,-7.364 20.182,-16.439 0,-9.077 -9.037,-16.437 -20.182,-16.437 -11.147,0 -20.185,7.36 -20.185,16.437 C -20.185,-7.364 -11.147,0 0,0"
             style="fill:#ededee;fill-opacity:1;fill-rule:evenodd;stroke:none"
             id="path304" /></g><g
           id="g306"
           transform="translate(82.3976,110.8002)"><path
             d="m 0,0 c 11.037,0 19.991,-7.246 19.991,-16.19 0,-8.935 -8.954,-16.183 -19.991,-16.183 -11.036,0 -19.986,7.248 -19.986,16.183 C -19.986,-7.246 -11.036,0 0,0"
             style="fill:#f0efef;fill-opacity:1;fill-rule:evenodd;stroke:none"
             id="path308" /></g><g
           id="g310"
           transform="translate(82.4568,110.7679)"><path
             d="m 0,0 c 10.929,0 19.795,-7.134 19.795,-15.935 0,-8.797 -8.866,-15.938 -19.795,-15.938 -10.932,0 -19.794,7.141 -19.794,15.938 C -19.794,-7.134 -10.932,0 0,0"
             style="fill:#f0efef;fill-opacity:1;fill-rule:evenodd;stroke:none"
             id="path312" /></g><g
           id="g314"
           transform="translate(82.5129,110.7416)"><path
             d="m 0,0 c 10.821,0 19.594,-7.026 19.594,-15.69 0,-8.656 -8.773,-15.685 -19.594,-15.685 -10.818,0 -19.596,7.029 -19.596,15.685 C -19.596,-7.026 -10.818,0 0,0"
             style="fill:#f0efef;fill-opacity:1;fill-rule:evenodd;stroke:none"
             id="path316" /></g><g
           id="g318"
           transform="translate(82.5677,110.712)"><path
             d="m 0,0 c 10.714,0 19.4,-6.915 19.4,-15.438 0,-8.521 -8.686,-15.435 -19.4,-15.435 -10.71,0 -19.399,6.914 -19.399,15.435 C -19.399,-6.915 -10.71,0 0,0"
             style="fill:#f3f2f1;fill-opacity:1;fill-rule:evenodd;stroke:none"
             id="path320" /></g><g
           id="g322"
           transform="translate(82.6238,110.6824)"><path
             d="m 0,0 c 10.606,0 19.203,-6.801 19.203,-15.19 0,-8.383 -8.597,-15.182 -19.203,-15.182 -10.603,0 -19.207,6.799 -19.207,15.182 C -19.207,-6.801 -10.603,0 0,0"
             style="fill:#f3f2f1;fill-opacity:1;fill-rule:evenodd;stroke:none"
             id="path324" /></g><g
           id="g326"
           transform="translate(82.6816,110.6501)"><path
             d="m 0,0 c 10.495,0 19.008,-6.689 19.008,-14.935 0,-8.247 -8.513,-14.935 -19.008,-14.935 -10.498,0 -19.011,6.688 -19.011,14.935 C -19.011,-6.689 -10.498,0 0,0"
             style="fill:#f6f5f5;fill-opacity:1;fill-rule:evenodd;stroke:none"
             id="path328" /></g><g
           id="g330"
           transform="translate(82.7375,110.6206)"><path
             d="m 0,0 c 10.385,0 18.812,-6.576 18.812,-14.686 0,-8.107 -8.427,-14.683 -18.812,-14.683 -10.391,0 -18.812,6.576 -18.812,14.683 C -18.812,-6.576 -10.391,0 0,0"
             style="fill:#f6f5f5;fill-opacity:1;fill-rule:evenodd;stroke:none"
             id="path332" /></g><g
           id="g334"
           transform="translate(82.7922,110.591)"><path
             d="m 0,0 c 10.284,0 18.614,-6.464 18.614,-14.433 0,-7.971 -8.33,-14.435 -18.614,-14.435 -10.279,0 -18.613,6.464 -18.613,14.435 C -18.613,-6.464 -10.279,0 0,0"
             style="fill:#f7f7f7;fill-opacity:1;fill-rule:evenodd;stroke:none"
             id="path336" /></g><g
           id="g338"
           transform="translate(82.8486,110.5603)"><path
             d="m 0,0 c 10.168,0 18.418,-6.349 18.418,-14.181 0,-7.834 -8.25,-14.188 -18.418,-14.188 -10.17,0 -18.419,6.354 -18.419,14.188 C -18.419,-6.349 -10.17,0 0,0"
             style="fill:#f7f7f7;fill-opacity:1;fill-rule:evenodd;stroke:none"
             id="path340" /></g><g
           id="g342"
           transform="translate(82.9034,110.5291)"><path
             d="m 0,0 c 10.069,0 18.223,-6.24 18.223,-13.933 0,-7.692 -8.154,-13.933 -18.223,-13.933 -10.062,0 -18.222,6.241 -18.222,13.933 C -18.222,-6.24 -10.062,0 0,0"
             style="fill:#fdfdfc;fill-opacity:1;fill-rule:evenodd;stroke:none"
             id="path344" /></g><g
           id="g346"
           transform="translate(82.9626,110.5006)"><path
             d="m 0,0 c 9.951,0 18.027,-6.125 18.027,-13.685 0,-7.549 -8.076,-13.68 -18.027,-13.68 -9.954,0 -18.03,6.131 -18.03,13.68 C -18.03,-6.125 -9.954,0 0,0"
             style="fill:#fdfdfc;fill-opacity:1;fill-rule:evenodd;stroke:none"
             id="path348" /></g><g
           id="g350"
           transform="translate(83.0143,110.4711)"><path
             d="m 0,0 c 9.85,0 17.834,-6.012 17.834,-13.432 0,-7.417 -7.984,-13.431 -17.834,-13.431 -9.846,0 -17.829,6.014 -17.829,13.431 C -17.829,-6.012 -9.846,0 0,0"
             style="fill:#ffffff;fill-opacity:1;fill-rule:evenodd;stroke:none"
             id="path352" /></g><g
           id="g354"><g
             id="g356" /><g
             id="g368"><g
               clip-path="url(#clipPath360)"
               opacity="0.5"
               id="g366"><g
                 transform="translate(82.1312,111.1934)"
                 id="g364"><path
                   d="m 0,0 c 0,0 2.001,-5.432 8.382,-9.324 0,0 15.048,-7.16 21.098,-16.505 -1.92,10.34 -8.554,19.021 -17.596,23.729 -1.268,0.636 -2.713,1.28 -4.3,1.868 C 4.574,0.834 1.369,1.488 -1.964,1.652 -1.363,1.354 -0.578,0.834 0,0 m 19.785,-26.887 c 0,0 -11.115,7.536 -14.947,9.789 0,0 -11.513,6.612 -9.925,18.651 0,0 -17.062,-2.912 -15.209,-13.495 0,0 -0.264,-4.628 13.358,-12.963 L 8.67,-35.486 c 0,0 21.189,-11.398 2.858,-26.632 8.98,4.543 15.65,12.985 17.79,23.099 -0.033,0.218 -0.078,0.428 -0.144,0.624 0,0 -0.925,5.818 -9.389,11.508 m -39.89,-26.69 -4.876,3.462 c -8.093,5.993 -11.171,12.301 -12.344,16.109 0.916,-15.787 12.698,-28.657 27.983,-31.248 -0.387,0.671 -0.962,1.638 -1.793,3.018 -3.302,5.507 -8.97,8.659 -8.97,8.659 m 24.372,8.317 c -16.995,10.623 -27.149,19.595 -27.149,19.595 -7.558,6.254 -3.186,14.987 -3.186,14.987 3.418,6.682 11.706,10.319 15.233,11.608 -0.104,-0.023 -0.218,-0.047 -0.326,-0.068 -4.626,-1.519 -8.421,-3.275 -11.51,-5.028 -7.393,-5.055 -12.672,-12.977 -14.234,-22.169 0.659,-3.145 1.983,-5.235 1.983,-5.235 4.603,-7.905 16.171,-15.697 16.171,-15.697 4.483,-2.833 9.443,-8.022 9.443,-8.022 3.146,-4.309 3.753,-8.026 3.706,-10.386 0.643,-0.036 1.289,-0.056 1.934,-0.056 3.178,0 6.263,0.442 9.181,1.267 2.187,1.787 3.356,3.507 3.356,3.507 7.195,9.443 -4.602,15.697 -4.602,15.697"
                   style="fill:#778c93;fill-opacity:1;fill-rule:nonzero;stroke:none"
                   id="path362" /></g></g></g></g></g></g><g
       id="g370"><g
         id="g372"><g
           id="g378"><g
             id="g380"><path
               d="m 63.296,100.647 c 0,0 -0.268,-4.629 13.358,-12.964 v 0 L 92.268,77.1 c 0,0 26.06,-14.019 -4.633,-31.744 v 0 c 0,0 10.844,0.924 21.698,17.197 v 0 c 0,0 4.622,8.067 3.433,11.638 v 0 c 0,0 -0.927,5.818 -9.394,11.507 v 0 c 0,0 -11.104,7.538 -14.945,9.786 v 0 c 0,0 -11.502,6.617 -9.917,18.655 v 0 c 0,0 -17.062,-2.908 -15.214,-13.492"
               style="fill:url(#radialGradient390);stroke:none"
               id="path392" /></g></g></g></g><g
       id="g394"><g
         id="g396"><g
           id="g402"><g
             id="g404"><path
               d="m 73.799,113.809 c 0.051,0.015 0.104,0.031 0.155,0.046 v 0 c 0,0 -0.054,-0.015 -0.155,-0.046 M 49.047,98.746 C 42.435,89.893 48.222,80.807 48.222,80.807 v 0 c 4.602,-7.91 16.169,-15.698 16.169,-15.698 v 0 c 4.486,-2.834 9.442,-8.023 9.442,-8.023 v 0 c 5.428,-7.436 3.306,-13.104 3.306,-13.104 v 0 c 9.446,-0.589 14.873,7.438 14.873,7.438 v 0 c 7.2,9.441 -4.602,15.695 -4.602,15.695 v 0 C 70.412,77.738 60.258,86.709 60.258,86.709 v 0 c -7.55,6.257 -3.184,14.988 -3.184,14.988 v 0 c 4.117,8.037 15.28,11.671 16.725,12.112 v 0 C 55.266,108.258 49.047,98.746 49.047,98.746"
               style="fill:url(#radialGradient414);stroke:none"
               id="path416" /></g></g></g></g><g
       id="g418"><g
         id="g420"><g
           id="g426"><g
             id="g428"><path
               d="M 50.718,57.073 C 61.577,43.854 72.81,44.413 72.81,44.413 v 0 c 0,0 0.786,-1.1 -2.518,4.41 v 0 c -3.305,5.506 -8.972,8.655 -8.972,8.655 v 0 l -4.875,3.462 c -12.748,9.441 -13.06,19.67 -13.06,19.67 v 0 C 41.864,69.774 50.718,57.073 50.718,57.073"
               style="fill:url(#radialGradient438);stroke:none"
               id="path440" /></g></g></g></g><g
       id="g442"><g
         id="g444"><g
           id="g450"><g
             id="g452"><path
               d="m 82.686,112.082 c 0,0 2.009,-5.426 8.381,-9.322 v 0 c 0,0 16.877,-8.027 22.07,-18.177 v 0 c 0,0 -2.24,13.694 -12.865,21.959 v 0 c 0,0 -8.97,6.957 -20.414,7.549 v 0 c 0,0 1.765,-0.47 2.828,-2.009"
               style="fill:url(#radialGradient464);stroke:none"
               id="path466" /></g></g></g></g><g
       id="g468"><g
         id="g470"
         clip-path="url(#clipPath474)"><g
           id="g476"><g
             id="g478" /><g
             id="g490"><g
               clip-path="url(#clipPath482)"
               opacity="0.5"
               id="g488"><g
                 transform="translate(47.5737,72.7165)"
                 id="g486"><path
                   d="m 0,0 0.049,-0.604 1.763,0.051 h 1.712 l 1.817,-0.103 2.421,-0.05 1.211,-0.606 0.554,-0.602 0.506,-0.604 h 0.958 l 0.299,0.402 c 0,0 0.251,0.35 0.604,0.35 0.356,0 1.265,-0.046 1.614,0 0.356,0.053 0.756,0.304 0.958,0.304 0.203,0 1.566,0.15 1.566,0.15 0,0 1.108,0.202 1.258,0.202 h 1.359 l 0.862,-0.298 0.502,-0.506 0.505,-0.604 0.303,-1.06 0.304,-1.108 v -1.109 l 0.25,-0.96 0.15,-0.504 0.405,-0.654 0.606,-0.707 0.705,-0.403 0.602,-0.15 0.757,-0.355 0.255,-0.706 -0.053,-0.856 -0.097,-0.805 -0.304,-0.706 v -1.011 l 0.049,-0.955 0.304,-0.807 0.253,-0.453 0.45,-0.708 0.053,-0.704 0.098,-0.506 h 0.86 l 1.259,0.051 0.251,0.655 0.555,0.705 0.857,0.304 0.306,-0.304 c 0,0 0.701,-0.049 0.854,0.051 0.151,0.1 0.606,0.356 0.606,0.356 l 1.11,0.35 0.808,0.452 0.652,0.356 1.311,0.302 1.111,0.252 0.754,0.301 0.808,0.254 1.158,0.25 1.111,0.153 0.753,0.151 0.862,0.101 h 1.51 l 1.059,0.051 1.112,0.403 c 0,0 1.157,0.504 1.157,0.656 0,0.149 1.109,0.853 1.109,0.853 l 0.606,0.86 0.502,1.26 0.454,1.209 0.403,0.757 0.506,0.906 0.554,0.708 0.3,1.008 0.356,1.16 0.651,0.805 1.513,0.051 0.407,0.655 0.503,1.21 0.656,0.857 c 0,0 0.049,0.658 0.049,0.909 0,0.252 0.354,1.715 0.354,1.715 l -0.205,0.854 -0.352,0.454 0.154,1.06 0.505,0.302 -0.053,0.907 -0.553,0.402 c 0,0 0.052,0.709 0.052,0.911 0,0.197 0.452,1.008 0.452,1.008 l 0.252,0.401 c 0,0 0.049,0.706 0.401,0.908 0.355,0.202 0.71,0.303 0.71,0.303 l 0.402,0.05 0.452,-0.101 h 1.158 0.809 l 0.101,0.454 -1.113,1.007 c 0,0 -0.651,0.961 -0.703,1.109 -0.049,0.153 0.101,1.664 0.101,1.664 l 0.254,1.515 0.551,0.303 h 0.858 l 0.104,0.807 0.404,0.957 0.551,0.655 0.505,0.604 0.049,1.21 -1.257,0.603 -0.911,0.405 -1.056,0.403 H 57.172 56.06 55.355 l -0.756,-0.3 h -0.656 l -0.201,0.704 -0.202,1.009 -0.805,0.701 -0.506,0.66 -0.558,0.253 c 0,0 -0.704,0.098 -0.903,0.098 h -1.112 l -0.501,0.052 -0.907,0.354 -1.767,0.956 -1.157,0.909 -0.857,0.704 c 0,0 -0.607,0.052 -0.806,0.052 -0.203,0 -0.959,-0.101 -0.959,-0.101 l -0.101,-0.504 -0.707,-0.054 -1.211,0.054 -0.854,0.905 -0.254,0.608 -0.25,0.552 -0.709,0.455 -0.906,0.152 -0.909,-0.05 -1.813,-1.26 -3.078,-1.968 -2.771,-1.362 -1.259,-0.402 -0.805,-0.351 -0.104,1.36 c 0,0 -0.604,0.704 -0.757,0.704 h -0.959 l -0.604,-0.753 -0.857,-0.306 -0.504,-0.149 0.052,-1.46 0.299,-1.062 -0.046,-1.16 -0.201,-0.857 -0.909,-0.503 -0.81,0.098 -0.854,-0.402 -0.101,-0.907 -0.101,-1.511 0.506,-0.708 0.098,-0.854 0.1,-0.91 -0.1,-0.854 -0.757,-0.558 -0.353,-0.653 0.15,-0.808 0.405,-0.2 0.153,-0.858 -0.202,-1.16 0.15,-0.959 c 0,0 -0.303,-0.299 -0.405,-0.604 C 20.263,8.673 19.409,7.866 19.409,7.866 L 18.249,7.413 17.29,6.505 16.739,5.899 16.081,6.655 c 0,0 -0.81,0.557 -1.06,0.557 H 14.013 12.501 L 11.141,7.26 10.335,7.11 9.778,6.453 8.973,6.155 7.815,6.05 6.752,5.849 5.393,5.648 4.385,5.597 c 0,0 -0.606,-0.047 -0.756,-0.201 C 3.479,5.245 2.873,5.041 2.719,4.54 2.569,4.033 1.262,2.524 1.262,2.524 1.262,2.524 0.3,1.313 0.15,1.062 0,0.807 0,0 0,0"
                   style="fill:#ffffff;fill-opacity:1;fill-rule:nonzero;stroke:none"
                   id="path484" /></g></g></g></g><g
           id="g492"
           transform="translate(85.2833,104.2354)"><path
             d="m 0,0 c -0.021,0 -0.041,-0.001 -0.062,-0.002 l -0.909,-0.05 c -0.206,-0.012 -0.406,-0.08 -0.575,-0.198 l -1.813,-1.26 -2.99,-1.91 -2.64,-1.298 -0.656,-0.209 c -0.037,0.185 -0.122,0.358 -0.246,0.503 -0.71,0.829 -1.1,1.095 -1.604,1.095 h -0.96 c -0.339,0 -0.66,-0.154 -0.871,-0.418 l -0.406,-0.507 -0.529,-0.189 -0.474,-0.139 c -0.489,-0.144 -0.819,-0.602 -0.801,-1.111 l 0.052,-1.461 c 0.003,-0.089 0.017,-0.178 0.041,-0.264 l 0.252,-0.891 -0.035,-0.876 -0.064,-0.27 -0.16,-0.089 -0.45,0.055 c -0.045,0.005 -0.09,0.008 -0.135,0.008 -0.163,0 -0.325,-0.036 -0.475,-0.106 l -0.854,-0.402 c -0.351,-0.165 -0.592,-0.501 -0.635,-0.887 l -0.101,-0.907 -0.105,-1.561 c -0.017,-0.257 0.055,-0.513 0.206,-0.723 l 0.337,-0.473 0.065,-0.567 0.087,-0.779 -0.029,-0.246 -0.367,-0.27 c -0.133,-0.098 -0.242,-0.224 -0.321,-0.369 l -0.352,-0.654 c -0.121,-0.225 -0.162,-0.484 -0.115,-0.734 l 0.149,-0.807 c 0.057,-0.308 0.24,-0.575 0.501,-0.74 l 0.021,-0.117 -0.168,-0.967 c -0.021,-0.12 -0.022,-0.243 -0.003,-0.364 l 0.074,-0.472 c -0.093,-0.138 -0.184,-0.299 -0.252,-0.473 -0.084,-0.117 -0.312,-0.365 -0.544,-0.595 l -0.951,-0.371 c -0.134,-0.053 -0.257,-0.131 -0.361,-0.23 l -0.722,-0.683 c -0.015,0.012 -0.03,0.023 -0.045,0.034 -1.096,0.754 -1.5,0.754 -1.694,0.754 h -1.007 -1.513 l -1.321,0.047 c -0.013,0.001 -0.026,0.001 -0.039,0.001 -0.068,0 -0.137,-0.007 -0.204,-0.019 l -0.806,-0.15 c -0.252,-0.047 -0.481,-0.18 -0.647,-0.376 l -0.368,-0.434 -0.391,-0.144 -1.01,-0.092 c -0.036,-0.003 -0.071,-0.008 -0.107,-0.014 l -1.063,-0.201 -1.262,-0.187 -0.953,-0.047 c -0.891,-0.07 -1.268,-0.324 -1.43,-0.469 -0.017,-0.011 -0.036,-0.022 -0.057,-0.034 -0.309,-0.185 -0.954,-0.571 -1.191,-1.341 -0.087,-0.192 -0.669,-0.961 -1.234,-1.614 -0.407,-0.51 -1.063,-1.346 -1.226,-1.62 -0.206,-0.351 -0.308,-0.898 -0.308,-1.635 0,-0.03 10e-4,-0.06 0.003,-0.09 l 0.049,-0.604 c 0.047,-0.582 0.533,-1.027 1.113,-1.027 0.011,0 0.022,0 0.033,0.001 l 1.763,0.051 h 1.647 l 1.786,-0.102 2.21,-0.046 0.802,-0.402 0.398,-0.432 0.489,-0.584 c 0.212,-0.253 0.526,-0.4 0.856,-0.4 h 0.958 c 0.353,0 0.685,0.167 0.896,0.45 l 0.223,0.299 c 0.055,-10e-4 0.115,-0.003 0.178,-0.004 0.228,-0.006 0.491,-0.013 0.726,-0.013 0.286,0 0.484,0.009 0.642,0.03 0.332,0.049 0.618,0.166 0.826,0.251 0.042,0.017 0.082,0.034 0.119,0.048 0.323,0.02 1,0.091 1.553,0.152 0.027,0.003 0.053,0.006 0.079,0.011 0.421,0.077 0.943,0.166 1.098,0.184 h 1.131 l 0.439,-0.152 0.286,-0.288 0.323,-0.386 0.237,-0.831 0.261,-0.953 v -0.958 c 0,-0.095 0.012,-0.19 0.036,-0.282 l 0.251,-0.96 0.16,-0.541 c 0.029,-0.094 0.069,-0.185 0.121,-0.269 l 0.405,-0.653 c 0.03,-0.049 0.064,-0.096 0.101,-0.139 l 0.607,-0.708 c 0.083,-0.097 0.183,-0.179 0.294,-0.243 l 0.704,-0.402 c 0.089,-0.051 0.185,-0.09 0.284,-0.114 l 0.496,-0.124 0.24,-0.112 0.019,-0.055 -0.036,-0.592 -0.074,-0.612 -0.241,-0.559 c -0.06,-0.139 -0.091,-0.289 -0.091,-0.441 v -1.011 c 0,-0.019 10e-4,-0.038 0.002,-0.057 l 0.049,-0.956 c 0.006,-0.115 0.029,-0.228 0.07,-0.336 l 0.304,-0.807 c 0.02,-0.052 0.043,-0.103 0.071,-0.152 l 0.253,-0.453 c 0.01,-0.017 0.021,-0.035 0.032,-0.052 l 0.3,-0.473 0.032,-0.425 c 0.003,-0.043 0.009,-0.086 0.017,-0.128 l 0.098,-0.506 c 0.102,-0.525 0.562,-0.905 1.096,-0.905 h 0.86 l 1.305,0.052 c 0.446,0.018 0.838,0.3 0.998,0.717 l 0.19,0.497 0.216,0.274 c 0.136,-0.072 0.286,-0.115 0.441,-0.126 0,0 0.209,-0.015 0.442,-0.015 0.378,0 0.774,0.03 1.105,0.248 0.091,0.06 0.309,0.185 0.438,0.258 l 0.999,0.315 c 0.073,0.023 0.143,0.053 0.209,0.091 l 0.808,0.451 0.508,0.277 1.162,0.268 1.106,0.251 c 0.057,0.013 0.113,0.03 0.168,0.052 l 0.714,0.285 0.719,0.226 1.067,0.231 1.068,0.147 c 0.023,0.003 0.045,0.007 0.067,0.011 l 0.709,0.142 0.752,0.088 h 1.445 c 0.018,0 0.036,0 0.054,10e-4 l 1.059,0.052 c 0.112,0.005 0.222,0.027 0.326,0.065 l 1.113,0.403 c 0.022,0.008 0.044,0.017 0.065,0.026 0.783,0.341 1.375,0.63 1.653,1.062 0.159,0.125 0.476,0.345 0.766,0.529 0.123,0.078 0.23,0.18 0.314,0.299 l 0.606,0.86 c 0.051,0.071 0.093,0.149 0.125,0.23 l 0.502,1.26 0.436,1.161 0.369,0.692 0.453,0.812 0.501,0.639 c 0.086,0.11 0.151,0.236 0.191,0.371 l 0.3,1.008 0.29,0.944 0.194,0.24 1.003,0.034 c 0.372,0.013 0.714,0.21 0.91,0.526 l 0.408,0.655 c 0.032,0.052 0.06,0.106 0.083,0.162 l 0.447,1.075 0.567,0.742 c 0.132,0.172 0.211,0.379 0.227,0.595 0.008,0.112 0.048,0.66 0.051,0.952 0.026,0.2 0.185,0.92 0.324,1.491 0.042,0.172 0.042,0.352 10e-4,0.524 l -0.205,0.854 c -0.037,0.155 -0.107,0.299 -0.204,0.425 l -0.062,0.079 0.01,0.064 0.049,0.029 c 0.358,0.213 0.567,0.609 0.543,1.025 l -0.054,0.907 c -0.019,0.334 -0.188,0.642 -0.459,0.838 l -0.054,0.04 c 0.004,0.074 0.007,0.145 0.01,0.208 0.057,0.134 0.183,0.386 0.301,0.601 l 0.236,0.375 c 0.098,0.155 0.156,0.333 0.169,0.516 0.002,0.029 0.009,0.068 0.017,0.106 0.088,0.039 0.168,0.069 0.221,0.088 l 0.107,0.013 0.263,-0.059 c 0.079,-0.017 0.161,-0.026 0.243,-0.026 h 1.158 0.808 c 0.524,0 0.977,0.363 1.09,0.874 l 0.101,0.454 c 0.087,0.391 -0.043,0.8 -0.34,1.069 l -1.012,0.917 c -0.161,0.24 -0.333,0.502 -0.442,0.675 0.014,0.281 0.056,0.786 0.097,1.214 l 0.143,0.848 h 0.412 c 0.561,0 1.036,0.417 1.108,0.974 l 0.084,0.655 0.28,0.662 0.442,0.527 0.507,0.605 c 0.158,0.189 0.25,0.425 0.26,0.671 l 0.049,1.211 c 0.018,0.446 -0.231,0.86 -0.634,1.053 l -1.257,0.603 -0.94,0.418 c -0.018,0.008 -0.037,0.016 -0.056,0.023 l -1.056,0.402 c -0.127,0.049 -0.262,0.074 -0.398,0.074 H 19.462 18.35 17.646 c -0.141,0 -0.281,-0.027 -0.412,-0.079 l -0.176,-0.07 -0.133,0.664 c -0.048,0.242 -0.175,0.462 -0.362,0.624 l -0.72,0.627 -0.438,0.57 c -0.111,0.146 -0.257,0.262 -0.424,0.338 l -0.558,0.253 c -0.098,0.044 -0.201,0.074 -0.307,0.089 -0.292,0.04 -0.817,0.109 -1.058,0.109 h -1.054 l -0.293,0.03 -0.702,0.274 -1.623,0.878 -1.082,0.85 -0.838,0.689 C 7.291,-2.23 7.078,-2.143 6.853,-2.124 6.7,-2.11 6.181,-2.067 5.951,-2.067 5.71,-2.067 5.154,-2.137 4.844,-2.178 4.497,-2.224 4.201,-2.428 4.03,-2.718 l -0.555,0.025 -0.404,0.427 -0.175,0.42 -0.264,0.584 C 2.543,-1.066 2.4,-0.9 2.218,-0.784 L 1.509,-0.329 C 1.382,-0.247 1.24,-0.192 1.091,-0.167 L 0.184,-0.015 C 0.123,-0.005 0.062,0 0,0 m 0,-1.117 0.906,-0.151 0.709,-0.456 0.251,-0.552 0.253,-0.608 0.855,-0.905 1.21,-0.054 0.707,0.054 0.101,0.504 c 0,0 0.756,0.101 0.959,0.101 0.199,0 0.806,-0.052 0.806,-0.052 l 0.857,-0.704 1.157,-0.909 1.767,-0.956 0.907,-0.354 0.501,-0.052 h 1.112 c 0.199,0 0.904,-0.098 0.904,-0.098 l 0.557,-0.253 0.506,-0.66 0.805,-0.701 0.202,-1.009 0.202,-0.704 h 0.655 l 0.757,0.3 h 0.704 1.112 0.805 l 1.056,-0.403 0.911,-0.404 1.258,-0.603 -0.049,-1.211 -0.506,-0.604 -0.55,-0.655 -0.405,-0.957 -0.104,-0.807 h -0.857 l -0.552,-0.303 -0.253,-1.515 c 0,0 -0.15,-1.511 -0.101,-1.664 0.051,-0.148 0.703,-1.108 0.703,-1.108 l 1.112,-1.008 -0.101,-0.454 h -0.808 -1.158 l -0.453,0.101 -0.402,-0.05 c 0,0 -0.354,-0.101 -0.71,-0.303 -0.352,-0.202 -0.401,-0.908 -0.401,-0.908 l -0.251,-0.401 c 0,0 -0.453,-0.811 -0.453,-1.008 0,-0.202 -0.052,-0.911 -0.052,-0.911 l 0.553,-0.401 0.054,-0.908 -0.506,-0.302 -0.154,-1.059 0.353,-0.455 0.205,-0.854 c 0,0 -0.355,-1.463 -0.355,-1.715 0,-0.251 -0.049,-0.909 -0.049,-0.909 l -0.656,-0.857 -0.502,-1.21 -0.408,-0.655 -1.513,-0.051 -0.651,-0.805 -0.356,-1.16 -0.299,-1.008 -0.555,-0.707 -0.506,-0.907 -0.403,-0.757 -0.454,-1.209 -0.501,-1.26 -0.607,-0.859 c 0,0 -1.109,-0.705 -1.109,-0.854 0,-0.152 -1.157,-0.656 -1.157,-0.656 L 6.453,-44.473 5.394,-44.524 H 3.884 L 3.023,-44.625 2.269,-44.776 1.158,-44.929 0,-45.179 l -0.808,-0.254 -0.754,-0.301 -1.11,-0.252 -1.311,-0.302 -0.653,-0.356 -0.808,-0.452 -1.11,-0.35 c 0,0 -0.455,-0.256 -0.606,-0.356 -0.077,-0.051 -0.294,-0.063 -0.49,-0.063 -0.192,0 -0.363,0.012 -0.363,0.012 l -0.307,0.304 -0.857,-0.304 -0.555,-0.705 -0.25,-0.655 -1.26,-0.051 h -0.86 l -0.098,0.506 -0.053,0.704 -0.449,0.708 -0.254,0.453 -0.304,0.807 -0.049,0.955 v 1.011 l 0.304,0.706 0.098,0.805 0.052,0.856 -0.255,0.706 -0.756,0.355 -0.603,0.15 -0.704,0.403 -0.607,0.707 -0.404,0.654 -0.15,0.504 -0.251,0.96 v 1.109 l -0.304,1.108 -0.303,1.06 -0.505,0.604 -0.502,0.506 -0.861,0.298 h -1.36 c -0.15,0 -1.258,-0.202 -1.258,-0.202 0,0 -1.363,-0.15 -1.566,-0.15 -0.201,0 -0.602,-0.251 -0.958,-0.304 -0.116,-0.015 -0.295,-0.02 -0.494,-0.02 -0.399,0 -0.882,0.02 -1.119,0.02 -0.353,0 -0.604,-0.35 -0.604,-0.35 l -0.3,-0.402 h -0.958 l -0.505,0.604 -0.555,0.602 -1.21,0.606 -2.422,0.051 -1.817,0.102 h -1.711 l -1.764,-0.051 -0.049,0.604 c 0,0 0,0.807 0.15,1.062 0.15,0.251 1.112,1.462 1.112,1.462 0,0 1.307,1.509 1.457,2.016 0.154,0.501 0.76,0.705 0.91,0.856 0.15,0.154 0.757,0.201 0.757,0.201 l 1.007,0.051 1.36,0.201 1.063,0.201 1.157,0.105 0.805,0.298 0.558,0.657 0.805,0.15 1.36,-0.048 h 1.513 1.007 c 0.25,0 1.06,-0.557 1.06,-0.557 l 0.659,-0.755 0.55,0.605 0.959,0.908 1.16,0.453 c 0,0 0.854,0.807 0.955,1.109 0.102,0.305 0.405,0.604 0.405,0.604 l -0.15,0.959 0.202,1.16 -0.153,0.858 -0.405,0.2 -0.149,0.808 0.352,0.654 0.757,0.557 0.101,0.854 -0.101,0.91 -0.098,0.854 -0.506,0.708 0.101,1.511 0.101,0.908 0.854,0.401 0.81,-0.098 0.909,0.503 0.202,0.857 0.046,1.16 -0.3,1.062 -0.052,1.46 0.505,0.149 0.857,0.306 0.603,0.753 h 0.96 c 0.153,0 0.756,-0.704 0.756,-0.704 l 0.104,-1.36 0.805,0.351 1.259,0.402 2.771,1.362 3.079,1.968 1.812,1.26 z"
             style="fill:#11406e;fill-opacity:1;fill-rule:nonzero;stroke:none"
             id="path494" /></g><g
           id="g496"
           transform="translate(7.6467,21.2182)"><path
             d="m 0,0 c 0,0.864 0.176,1.607 0.527,2.235 0.349,0.628 0.813,1.146 1.386,1.557 0.698,0.535 1.552,0.926 2.56,1.172 1.007,0.248 2.1,0.374 3.27,0.374 1.174,0 2.36,-0.134 3.564,-0.4 1.202,-0.266 2.49,-0.743 3.871,-1.435 L 13.941,0.893 C 12.894,1.407 11.877,1.782 10.89,2.02 9.905,2.256 8.917,2.374 7.93,2.374 7.166,2.374 6.443,2.324 5.754,2.219 5.067,2.116 4.496,1.901 4.043,1.57 3.488,1.181 3.211,0.656 3.211,-0.005 c 0,-0.269 0.059,-0.489 0.183,-0.665 0.124,-0.174 0.3,-0.336 0.525,-0.477 0.268,-0.206 0.586,-0.356 0.955,-0.451 0.372,-0.091 0.72,-0.169 1.05,-0.231 l 3.762,-0.68 c 0.926,-0.165 1.836,-0.413 2.73,-0.742 0.896,-0.329 1.649,-0.792 2.269,-1.389 0.41,-0.412 0.727,-0.891 0.955,-1.437 0.225,-0.548 0.339,-1.202 0.339,-1.961 0,-0.99 -0.199,-1.834 -0.594,-2.536 -0.39,-0.701 -0.912,-1.268 -1.554,-1.7 -0.829,-0.577 -1.83,-0.983 -3.003,-1.221 -1.174,-0.236 -2.374,-0.353 -3.61,-0.353 -0.78,0 -1.49,0.028 -2.125,0.09 -0.64,0.061 -1.257,0.159 -1.853,0.293 -0.596,0.134 -1.18,0.309 -1.757,0.526 -0.574,0.215 -1.183,0.466 -1.823,0.757 l 1.021,2.712 c 2.262,-0.907 4.422,-1.358 6.479,-1.358 1.108,0 2.045,0.073 2.806,0.217 0.757,0.143 1.415,0.421 1.973,0.833 0.493,0.39 0.741,0.936 0.741,1.635 0,0.347 -0.07,0.647 -0.202,0.895 -0.131,0.245 -0.314,0.462 -0.535,0.648 -0.332,0.224 -0.73,0.415 -1.204,0.568 -0.469,0.157 -0.974,0.282 -1.506,0.387 L 5.138,-4.937 C 4.3,-4.791 3.534,-4.581 2.845,-4.304 2.158,-4.026 1.581,-3.651 1.108,-3.178 0.759,-2.807 0.486,-2.365 0.292,-1.852 0.101,-1.339 0,-0.72 0,0"
             style="fill:#123f6c;fill-opacity:1;fill-rule:nonzero;stroke:none"
             id="path498" /></g><g
           id="g500"
           transform="translate(26.0933,26.2151)"><path
             d="M 0,0 H 14.343 V -3.025 H 3.301 v -4.316 h 9.868 v -2.961 H 3.301 v -5.244 h 11.473 v -2.962 H 0 Z"
             style="fill:#123f6c;fill-opacity:1;fill-rule:nonzero;stroke:none"
             id="path502" /></g><g
           id="g504"
           transform="translate(42.8727,26.2151)"><path
             d="M 0,0 H 16.993 V -2.961 H 10.117 V -18.508 H 6.879 v 15.547 l -6.879,0 z"
             style="fill:#123f6c;fill-opacity:1;fill-rule:nonzero;stroke:none"
             id="path506" /></g><g
           id="g508"
           transform="translate(65.7609,26.2151)"><path
             d="M 0,0 6.536,-9.162 12.92,0 h 3.551 V -18.508 H 13.168 V -4.937 H 13.044 L 6.98,-13.541 H 5.783 l -6.126,8.604 H -0.464 V -18.508 H -3.58 L -3.58,0 Z"
             style="fill:#123f6c;fill-opacity:1;fill-rule:nonzero;stroke:none"
             id="path510" /></g><path
           d="m 88.554,7.707 h -3.24 v 18.508 h 3.24 z"
           style="fill:#123f6c;fill-opacity:1;fill-rule:nonzero;stroke:none"
           id="path512" /><g
           id="g514"
           transform="translate(108.8182,26.2151)"><path
             d="m 0,0 v -18.508 h -3.056 l -10.887,13.294 v -13.294 h -3.24 V 0 h 3.054 L -3.177,-13.325 V 0 Z"
             style="fill:#123f6c;fill-opacity:1;fill-rule:nonzero;stroke:none"
             id="path516" /></g><g
           id="g518"
           transform="translate(117.3931,14.0618)"><path
             d="M 0,0 H 7.372 L 3.821,8.79 H 3.452 Z m 5.491,12.153 8.203,-18.508 h -3.549 l -1.541,3.394 h -9.869 l -1.51,-3.394 h -3.486 l 8.203,18.508 z"
             style="fill:#123f6c;fill-opacity:1;fill-rule:nonzero;stroke:none"
             id="path520" /></g><g
           id="g522"
           transform="translate(133.0621,21.2182)"><path
             d="m 0,0 c 0,0.864 0.173,1.607 0.521,2.235 0.349,0.628 0.816,1.146 1.389,1.557 0.702,0.535 1.553,0.926 2.56,1.172 1.007,0.248 2.097,0.374 3.271,0.374 1.174,0 2.359,-0.134 3.56,-0.4 1.202,-0.266 2.493,-0.743 3.873,-1.435 L 13.941,0.893 C 12.892,1.407 11.875,1.782 10.887,2.02 9.899,2.256 8.915,2.374 7.926,2.374 7.163,2.374 6.439,2.324 5.748,2.219 5.064,2.116 4.493,1.901 4.04,1.57 3.482,1.181 3.205,0.656 3.205,-0.005 c 0,-0.269 0.062,-0.489 0.186,-0.665 0.124,-0.174 0.3,-0.336 0.525,-0.477 0.268,-0.206 0.587,-0.356 0.955,-0.451 0.369,-0.091 0.72,-0.169 1.05,-0.231 l 3.763,-0.68 c 0.925,-0.165 1.836,-0.413 2.729,-0.742 0.893,-0.329 1.649,-0.792 2.269,-1.389 0.41,-0.412 0.73,-0.891 0.955,-1.437 0.225,-0.548 0.34,-1.202 0.34,-1.961 0,-0.99 -0.196,-1.834 -0.594,-2.536 -0.394,-0.701 -0.913,-1.268 -1.555,-1.7 -0.832,-0.577 -1.833,-0.983 -3.003,-1.221 -1.174,-0.236 -2.374,-0.353 -3.61,-0.353 -0.783,0 -1.49,0.028 -2.128,0.09 -0.637,0.061 -1.257,0.159 -1.853,0.293 -0.593,0.134 -1.18,0.309 -1.757,0.526 -0.574,0.215 -1.18,0.466 -1.819,0.757 l 1.017,2.712 c 2.262,-0.907 4.421,-1.358 6.478,-1.358 1.112,0 2.044,0.073 2.807,0.217 0.764,0.143 1.42,0.421 1.977,0.833 0.491,0.39 0.739,0.936 0.739,1.635 0,0.347 -0.068,0.647 -0.199,0.895 -0.136,0.245 -0.312,0.462 -0.54,0.648 -0.33,0.224 -0.727,0.415 -1.2,0.568 -0.472,0.157 -0.972,0.282 -1.507,0.387 L 5.139,-4.937 C 4.294,-4.791 3.531,-4.581 2.843,-4.304 2.158,-4.026 1.579,-3.651 1.109,-3.178 0.759,-2.807 0.485,-2.365 0.291,-1.852 0.095,-1.339 0,-0.72 0,0"
             style="fill:#123f6c;fill-opacity:1;fill-rule:nonzero;stroke:none"
             id="path524" /></g></g></g></g></svg>
