<svg xmlns="http://www.w3.org/2000/svg" viewBox="0 0 141.73 141.73">
  <style>
    .st0 { fill: currentColor; }
  </style>
  <path class="st0" d="M107.44,56.94c-1.35-3.19-3.08-6.18-5.16-8.91l-2.36-.32-3.74,3.74c2,2.49,3.64,5.23,4.89,8.18,1.8,4.26,2.72,8.79,2.72,13.44s-.91,9.18-2.72,13.44c-1.74,4.11-4.23,7.8-7.4,10.97-3.17,3.17-6.86,5.66-10.97,7.4-4.26,1.8-8.79,2.72-13.44,2.72s-9.18-.91-13.44-2.72c-4.11-1.74-7.8-4.23-10.97-7.4-3.17-3.17-5.66-6.86-7.4-10.97-1.8-4.26-2.72-8.79-2.72-13.44s.91-9.18,2.72-13.44c1.74-4.11,4.23-7.8,7.4-10.97,3.17-3.17,6.86-5.66,10.97-7.4,4.26-1.8,8.79-2.72,13.44-2.72s9.18.91,13.44,2.72c2.96,1.25,5.7,2.89,8.18,4.89l3.74-3.74-.32-2.36c-2.74-2.08-5.72-3.81-8.91-5.16-5.12-2.17-10.55-3.26-16.14-3.26s-11.02,1.1-16.14,3.26c-4.94,2.09-9.37,5.07-13.17,8.87-3.8,3.8-6.79,8.23-8.87,13.17-2.17,5.12-3.26,10.55-3.26,16.14s1.1,11.02,3.26,16.14c2.09,4.94,5.07,9.37,8.87,13.17,3.8,3.8,8.23,6.79,13.17,8.87,5.12,2.17,10.55,3.26,16.14,3.26s11.02-1.1,16.14-3.26c4.94-2.09,9.37-5.07,13.17-8.87,3.8-3.8,6.79-8.23,8.87-13.17,2.17-5.12,3.26-10.55,3.26-16.14s-1.1-11.02-3.26-16.14h0Z"/>
  <path class="st0" d="M94.9,62.24c-.91-2.16-2.08-4.17-3.49-6.02l-4.94,4.94c2.41,3.47,3.71,7.59,3.71,11.91,0,5.59-2.17,10.84-6.13,14.79-3.95,3.95-9.2,6.13-14.79,6.13s-10.84-2.18-14.79-6.13c-3.95-3.95-6.13-9.2-6.13-14.79s2.17-10.84,6.13-14.79c3.95-3.95,9.2-6.13,14.79-6.13,4.32,0,8.44,1.3,11.91,3.71l4.94-4.94c-1.85-1.41-3.86-2.58-6.02-3.49-3.43-1.45-7.08-2.19-10.83-2.19s-7.4.74-10.83,2.19c-3.31,1.4-6.29,3.41-8.84,5.96-2.55,2.55-4.56,5.53-5.96,8.84-1.45,3.43-2.19,7.08-2.19,10.83s.74,7.4,2.19,10.83c1.4,3.31,3.41,6.29,5.96,8.84,2.55,2.55,5.53,4.56,8.84,5.96,3.43,1.45,7.08,2.19,10.83,2.19s7.4-.74,10.83-2.19c3.31-1.4,6.29-3.41,8.84-5.96,2.55-2.55,4.56-5.53,5.96-8.84,1.45-3.43,2.19-7.08,2.19-10.83s-.74-7.4-2.19-10.83h0Z"/>
  <path class="st0" d="M81.61,66.02l-5.26,5.26c.14.58.22,1.18.22,1.79,0,1.95-.76,3.78-2.14,5.16-1.38,1.38-3.21,2.14-5.16,2.14s-3.78-.76-5.16-2.14c-1.38-1.38-2.14-3.21-2.14-5.16s.76-3.78,2.14-5.16c1.38-1.38,3.21-2.14,5.16-2.14.61,0,1.21.07,1.79.22l5.26-5.26c-2.12-1.22-4.54-1.87-7.05-1.87-3.8,0-7.36,1.48-10.05,4.16s-4.16,6.25-4.16,10.05,1.48,7.36,4.16,10.05,6.25,4.16,10.05,4.16,7.36-1.48,10.05-4.16c2.68-2.68,4.16-6.25,4.16-10.05,0-2.51-.65-4.93-1.87-7.05Z"/>
  <path class="st0" d="M112.32,37.65l-2.39-2.39,1.91-1.91c.79-.79.79-2.06,0-2.85s-2.06-.79-2.85,0l-1.91,1.91-2.39-2.39c-.73-.73-1.91-.73-2.64,0l-5.82,5.82c-.41.41-.61.99-.53,1.57l.76,5.62-28.62,28.62c-.79.79-.79,2.06,0,2.85.39.39.91.59,1.42.59s1.03-.2,1.42-.59l28.62-28.62,5.62.76c.58.08,1.16-.12,1.57-.53l5.82-5.82c.73-.73.73-1.91,0-2.64h0Z"/>
</svg>
