<svg xmlns="http://www.w3.org/2000/svg" viewBox="0 0 141.73 141.73">
  <style>
    .st0 { fill: currentColor; } /* Default fill, will be overridden by className */
  </style>
  <path class="st0" d="M65.14,109.82h-3.37l-.62-3.11-.03-.42-.42-.66-.54-1.02-.59-1.58-.1-1.96v-2.03l.52-1.22.12-1.13-.82-.21-1.74-.98-1.43-1.71-.78-1.27-.32-1.08-.49-1.84v-1.66l-.67-2.41-.62-.7-.36-.12h-1.51c-.26.04-.99.16-1.57.26l-.17.02c-1.25.14-1.89.2-2.24.22-.01,0-.03.01-.04.02-.36.15-.85.35-1.44.44-.51.08-1.18.07-2.06.04l-.84,1.13h-3.87l-1.96-2.3-.9-.46-3.09-.06-2.76-.15h-2.51l-4.96.15-.28-3.49c0-1.91.44-2.65.59-2.89.21-.34.83-1.18,1.86-2.47l.07-.08c.74-.86,1.53-1.88,1.74-2.25.48-1.39,1.62-2.07,2.11-2.37l.03-.02c.34-.29,1.06-.72,2.51-.85l1.48-.07,1.88-.28,1.8-.33,1.41-.12.29-.11.98-1.16,2.37-.45,2.34.09h3.7c.37,0,1.02,0,2.54.96l.97-.92,1.72-.67c.24-.24.46-.49.58-.63.07-.16.15-.31.23-.45l-.13-.83.25-1.4-.48-.24-.6-3.32,1.22-2.25.7-.51-.19-1.66-.91-1.27.22-3.28.31-2.75,3.21-1.52.82.1.04-.88-.43-1.5-.16-4.47,3.11-.93,1.21-1.53h2.65c1.16,0,1.96.68,3.04,1.94l.24.27.2-.06,3.89-1.91,4.52-2.89,3.24-2.25,2.35-.13,2.15.36,2.13,1.36.95,2.11.06-.29,1.77-.24c.87-.12,1.46-.17,1.77-.17.36,0,1.45.09,1.45.09l.77.07,1.88,1.55,1.54,1.19,2.34,1.27.91.35.29.03h1.54c.32,0,.9.06,1.72.18l.35.05,1.73.79.99,1.28,1.67,1.46.19.96h4.67l2.15.82,1.38.61,3.45,1.66-.2,4.3-1.89,2.28-.33.77-.37,3.07h-2.16l-.09.57c-.05.54-.1,1.11-.12,1.5.13.2.29.45.46.7l2.52,2.3-.9,4.06h-5.25l-.24-.06v.09s-.67,1.09-.67,1.09c-.08.15-.17.32-.25.47l.6.44.23,4.06-.69.42.53,2.25-.14.58c-.19.79-.41,1.79-.47,2.13-.01.49-.07,1.41-.07,1.41l-.05.75-1.25,1.63-.82,1.88-1.31,2.12-2.46.09-.97,3.2-1.01,1.28-1.18,2.16-1.51,3.89-1.37,1.93-.41.26c-.35.22-.75.5-.99.68-.62.85-1.74,1.34-2.77,1.79l-.14.06-2.03.74-2.09.09h-2.13l-1.06.13-1.19.24-1.58.21-1.54.33-1.02.32-1.43.54-3.31.75-2.34,1.24-1.44.46c-.16.09-.38.22-.5.29-.53.34-1.2.62-2.87.5l-.28-.02-.77,2.01-3.6.15ZM65.03,103.13l.72,1.12.93-1.19,3.49-1.22.62.63c.1-.05.16-.09.16-.09l.44-.19,1.43-.46,2.32-1.27,3.79-.87,1.14-.45,1.44-.44,1.93-.41,1.6-.22,1.25-.24,1.6-.17,3.38-.05,1.23-.45c.29-.13.61-.28.83-.4.42-.48,1.01-.92,1.76-1.41l.46-.65,1.45-3.71,1.61-2.88.54-.69,1-3.28,2-2.48,2.02-.07.68-1.63.73-.95c0-.18.02-.34.02-.46,0-.21,0-.6.46-2.59l-.04-.18-.86-1.09.48-3.26-.35-.26.09-1.37s.06-.93.06-1.22c0-.48.08-1.09,1.01-2.74l.17-.28c.17-.81.62-2,1.76-2.65.76-.43,1.48-.65,1.62-.69l.24-.06c-.15-.27-.21-.42-.25-.54-.17-.48-.23-.96.03-3.55l.02-.16.58-3.49,2.34-1.27.67-1.56.88-1.04-1.28-.57-1.1-.42h-3.02l-1.13.45h-3.35l-.88-3.07-.14-.7-.91-.86-.37-.48c-.23-.03-.51-.06-.67-.07h-1.76s-1.21-.13-1.21-.13l-1.97-.78-3-1.67-2.15-1.69-.1.49-3.11.2-2.97-.11-2.31-2.46-.61-1.42-.59-.1-.39.02-2.15,1.49-4.96,3.15-4.52,2.19-1.77.56-4.34,1.91-.26-3.45-.66.23v.02s.48,1.7.48,1.7l-.16,2.62-.56,2.36-3.04,1.7-.71-.09-.06.89.61.86.41,3.59-.31,2.66-.89.65.46,2.61-.31,1.77.36,2.27-.88.9s-.05.06-.07.09c-.12.33-.47,1.07-2.04,2.57l-.36.34-1.75.68-1.03.97-2.68,2.92-2.58-3c-.14-.09-.28-.17-.39-.23h-3.35l-1.87-.07h-.07s-.68.83-.68.83l-2.16.8-1.95.17-1.57.3-2.31.33-1.5.07s-.02,0-.06,0c-.09.06-.17.11-.25.16-.03.02-.06.03-.09.05-.23.53-.83,1.56-2.53,3.52-.14.18-.29.36-.43.55h1.99s2.81.16,2.81.16l4.14.08,2.72,1.37.83.9c.55-.39,1.25-.69,2.06-.69.17,0,.42,0,.71.02.37,0,1.14.04,1.37,0,.03-.01.13-.07.23-.11.41-.17.92-.38,1.55-.38.16,0,1.17-.11,2.01-.2,1.82-.33,2.07-.33,2.26-.33h2.47l2.23.78,1.33,1.34,1.08,1.32,1.15,4.12v1.68l.41,1.5.34.54.5.58.39.22,1.03.31,2.08.97.9,2.53-.12,1.97-.2,1.56-.39.91v.95l.05.99.26.68.25.45ZM44.23,85.19l-.02.03s.01-.02.02-.03ZM110.63,78.56v.06-.06ZM26.9,72.89s-.03.08-.04.11c.01-.04.02-.07.04-.11ZM28.9,70.6s-.02.02-.03.03l.03-.03ZM53.56,66.08s-.03.08-.05.13c.02-.05.03-.09.05-.13Z"/>
</svg>
