<?xml version="1.0" encoding="UTF-8"?>
<svg id="Layer_1" xmlns="http://www.w3.org/2000/svg" xmlns:xlink="http://www.w3.org/1999/xlink" version="1.1" viewBox="0 0 1022.5 595.28">
  <!-- Generator: Adobe Illustrator 29.5.0, SVG Export Plug-In . SVG Version: 2.1.0 Build 137)  -->
  <defs>
    <style>
      .st0 {
        fill: #d8d9d9;
      }

      .st0, .st1, .st2, .st3, .st4, .st5, .st6, .st7, .st8, .st9, .st10, .st11, .st12, .st13, .st14, .st15, .st16, .st17, .st18, .st19, .st20, .st21, .st22, .st23, .st24, .st25, .st26, .st27, .st28, .st29, .st30, .st31, .st32, .st33, .st34, .st35, .st36, .st37, .st38, .st39, .st40 {
        fill-rule: evenodd;
      }

      .st1 {
        fill: #e3e3e4;
      }

      .st2 {
        fill: #dcdede;
      }

      .st3 {
        fill: #c3c6c8;
      }

      .st4 {
        fill: #fdfdfd;
      }

      .st5 {
        fill: #a4a9ab;
      }

      .st6 {
        fill: #d5d8d8;
      }

      .st7 {
        fill: #ededed;
      }

      .st8, .st41 {
        fill: #fff;
      }

      .st9 {
        fill: #acb0b2;
      }

      .st10 {
        fill: #c9cccd;
      }

      .st11 {
        fill: #f0efef;
      }

      .st12 {
        fill: #b9bdbf;
      }

      .st42 {
        fill: #123f6d;
      }

      .st13 {
        fill: #dedfdf;
      }

      .st14 {
        fill: #b7bbbc;
      }

      .st15 {
        fill: #d2d4d4;
      }

      .st43 {
        fill: url(#radial-gradient);
      }

      .st44 {
        fill: #778b93;
      }

      .st44, .st45 {
        opacity: .5;
      }

      .st16 {
        fill: #ececeb;
      }

      .st17 {
        fill: #e1e2e2;
      }

      .st18 {
        fill: #c6c9ca;
      }

      .st19 {
        fill: #b5b9bb;
      }

      .st20 {
        fill: #e5e6e5;
      }

      .st21 {
        fill: #e6e8e7;
      }

      .st22 {
        fill: #abaeb1;
      }

      .st23 {
        fill: #f6f5f4;
      }

      .st24 {
        fill: #babfc0;
      }

      .st25 {
        fill: #bfc3c4;
      }

      .st26 {
        fill: #f7f7f7;
      }

      .st27 {
        fill: #a8adae;
      }

      .st28 {
        fill: #a7abae;
      }

      .st29 {
        fill: #b3b6b7;
      }

      .st30 {
        fill: #f3f2f1;
      }

      .st31 {
        fill: #cacdce;
      }

      .st32 {
        fill: #cfd2d2;
      }

      .st46 {
        fill: url(#radial-gradient1);
      }

      .st47 {
        fill: url(#radial-gradient3);
      }

      .st48 {
        fill: url(#radial-gradient2);
      }

      .st33 {
        fill: #d3d6d6;
      }

      .st34 {
        fill: #ced1d1;
      }

      .st35 {
        fill: #e9eae9;
      }

      .st36 {
        fill: #d9dcdc;
      }

      .st37 {
        fill: #afb4b5;
      }

      .st38 {
        fill: #aeb2b4;
      }

      .st39 {
        fill: #bec1c2;
      }

      .st40 {
        fill: #c2c5c6;
      }
    </style>
    <radialGradient id="radial-gradient" cx="1555.64" cy="187.56" fx="1555.64" fy="187.56" r="147.01" gradientTransform="translate(-1555 58.28) scale(1.13)" gradientUnits="userSpaceOnUse">
      <stop offset=".03" stop-color="#1f98cf"/>
      <stop offset=".5" stop-color="#0d1d3f"/>
    </radialGradient>
    <radialGradient id="radial-gradient1" cx="1530.24" cy="205.54" fx="1530.24" fy="205.54" r="120.93" gradientTransform="translate(-1555 58.28) scale(1.13)" gradientUnits="userSpaceOnUse">
      <stop offset=".05" stop-color="#1f98cf"/>
      <stop offset=".5" stop-color="#0d1d3f"/>
    </radialGradient>
    <radialGradient id="radial-gradient2" cx="1525.97" cy="215.6" fx="1525.97" fy="215.6" r="102.75" gradientTransform="translate(-1555 58.28) scale(1.13)" gradientUnits="userSpaceOnUse">
      <stop offset=".29" stop-color="#0b71a0"/>
      <stop offset=".43" stop-color="#162f54"/>
    </radialGradient>
    <radialGradient id="radial-gradient3" cx="1561.99" cy="175.92" fx="1561.99" fy="175.92" r="71.06" gradientTransform="translate(-1555 58.28) scale(1.13)" gradientUnits="userSpaceOnUse">
      <stop offset=".06" stop-color="#199ad0"/>
      <stop offset=".17" stop-color="#1787bb"/>
      <stop offset=".39" stop-color="#125984"/>
      <stop offset=".64" stop-color="#0d1d3f"/>
    </radialGradient>
  </defs>
  <g>
    <g>
      <path class="st12" d="M197.66,238.65c18.48,0,33.47,11.29,33.47,25.21s-14.99,25.22-33.47,25.22-33.47-11.29-33.47-25.22,14.99-25.21,33.47-25.21h0Z"/>
      <path class="st8" d="M188.96,243.57c12.45,0,22.56,4.7,22.56,10.49s-10.1,10.49-22.56,10.49-22.56-4.69-22.56-10.49,10.1-10.49,22.56-10.49h0Z"/>
      <path class="st5" d="M189.12,234.95c34.49,0,62.46,27.97,62.46,62.45s-27.97,62.45-62.46,62.45-62.46-27.97-62.46-62.45,27.97-62.45,62.46-62.45h0Z"/>
      <path class="st5" d="M189.23,235.01c34.28,0,62.09,27.76,62.09,61.99s-27.81,61.99-62.09,61.99-62.09-27.76-62.09-61.99,27.81-61.99,62.09-61.99h0Z"/>
      <path class="st28" d="M189.33,235.06c34.08,0,61.73,27.55,61.73,61.53s-27.64,61.52-61.73,61.52-61.73-27.55-61.73-61.52,27.64-61.53,61.73-61.53h0Z"/>
      <path class="st28" d="M189.44,235.11c33.88,0,61.36,27.35,61.36,61.06s-27.48,61.06-61.36,61.06-61.37-27.35-61.37-61.06,27.48-61.06,61.37-61.06h0Z"/>
      <path class="st27" d="M189.54,235.17c33.68,0,61,27.14,61,60.6s-27.32,60.6-61,60.6-61-27.14-61-60.6,27.32-60.6,61-60.6h0Z"/>
      <path class="st27" d="M189.64,235.23c33.48,0,60.64,26.93,60.64,60.13s-27.16,60.14-60.64,60.14-60.64-26.93-60.64-60.14,27.15-60.13,60.64-60.13h0Z"/>
      <path class="st22" d="M189.75,235.28c33.28,0,60.28,26.72,60.28,59.67s-26.99,59.67-60.28,59.67-60.28-26.72-60.28-59.67,27-59.67,60.28-59.67h0Z"/>
      <path class="st22" d="M189.85,235.34c33.08,0,59.91,26.51,59.91,59.2s-26.83,59.2-59.91,59.2-59.91-26.51-59.91-59.2,26.83-59.2,59.91-59.2h0Z"/>
      <path class="st9" d="M189.96,235.39c32.88,0,59.55,26.3,59.55,58.75s-26.67,58.74-59.55,58.74-59.55-26.3-59.55-58.74,26.66-58.75,59.55-58.75h0Z"/>
      <path class="st9" d="M190.06,235.44c32.68,0,59.18,26.1,59.18,58.28s-26.5,58.27-59.18,58.27-59.19-26.09-59.19-58.27,26.5-58.28,59.19-58.28h0Z"/>
      <path class="st38" d="M190.17,235.5c32.48,0,58.82,25.89,58.82,57.81s-26.34,57.81-58.82,57.81-58.82-25.89-58.82-57.81,26.34-57.81,58.82-57.81h0Z"/>
      <path class="st38" d="M190.27,235.56c32.28,0,58.46,25.68,58.46,57.35s-26.18,57.35-58.46,57.35-58.46-25.68-58.46-57.35,26.18-57.35,58.46-57.35h0Z"/>
      <path class="st37" d="M190.37,235.61c32.08,0,58.1,25.47,58.1,56.88s-26.02,56.89-58.1,56.89-58.1-25.48-58.1-56.89,26.01-56.88,58.1-56.88h0Z"/>
      <path class="st37" d="M190.47,235.66c31.88,0,57.74,25.27,57.74,56.43s-25.86,56.42-57.74,56.42-57.73-25.27-57.73-56.42,25.86-56.43,57.73-56.43h0Z"/>
      <path class="st29" d="M190.58,235.72c31.67,0,57.36,25.06,57.36,55.96s-25.69,55.95-57.36,55.95-57.37-25.05-57.37-55.95,25.69-55.96,57.37-55.96h0Z"/>
      <path class="st29" d="M190.69,235.77c31.47,0,57,24.85,57,55.5s-25.53,55.49-57,55.49-57.01-24.85-57.01-55.49,25.53-55.5,57.01-55.5h0Z"/>
      <path class="st19" d="M190.78,235.83c31.28,0,56.64,24.64,56.64,55.03s-25.36,55.03-56.64,55.03-56.64-24.65-56.64-55.03,25.36-55.03,56.64-55.03h0Z"/>
      <path class="st19" d="M190.89,235.88c31.08,0,56.28,24.44,56.28,54.57s-25.2,54.56-56.28,54.56-56.28-24.44-56.28-54.56,25.21-54.57,56.28-54.57h0Z"/>
      <path class="st14" d="M191,235.94c30.87,0,55.91,24.23,55.91,54.1s-25.04,54.1-55.91,54.1-55.92-24.23-55.92-54.1,25.04-54.1,55.92-54.1h0Z"/>
      <path class="st14" d="M191.1,236c30.68,0,55.55,24.02,55.55,53.64s-24.88,53.64-55.55,53.64-55.55-24.02-55.55-53.64,24.88-53.64,55.55-53.64h0Z"/>
      <path class="st12" d="M191.2,236.05c30.47,0,55.19,23.81,55.19,53.17s-24.72,53.18-55.19,53.18-55.19-23.81-55.19-53.18,24.71-53.17,55.19-53.17h0Z"/>
      <path class="st12" d="M191.31,236.11c30.27,0,54.82,23.61,54.82,52.71s-24.55,52.71-54.82,52.71-54.82-23.61-54.82-52.71,24.54-52.71,54.82-52.71h0Z"/>
      <path class="st24" d="M191.41,236.16c30.07,0,54.46,23.4,54.46,52.25s-24.38,52.24-54.46,52.24-54.47-23.4-54.47-52.24,24.39-52.25,54.47-52.25h0Z"/>
      <path class="st24" d="M191.51,236.22c29.88,0,54.1,23.19,54.1,51.79s-24.22,51.79-54.1,51.79-54.1-23.2-54.1-51.79,24.23-51.79,54.1-51.79h0Z"/>
      <path class="st39" d="M191.62,236.27c29.67,0,53.74,22.99,53.74,51.33s-24.07,51.32-53.74,51.32-53.74-22.98-53.74-51.32,24.07-51.33,53.74-51.33h0Z"/>
      <path class="st39" d="M191.73,236.33c29.47,0,53.37,22.78,53.37,50.86s-23.9,50.86-53.37,50.86-53.38-22.78-53.38-50.86,23.91-50.86,53.38-50.86h0Z"/>
      <path class="st25" d="M191.83,236.38c29.27,0,53.01,22.57,53.01,50.4s-23.74,50.39-53.01,50.39-53.01-22.56-53.01-50.39,23.74-50.4,53.01-50.4h0Z"/>
      <path class="st25" d="M191.93,236.44c29.07,0,52.65,22.36,52.65,49.93s-23.58,49.93-52.65,49.93-52.65-22.35-52.65-49.93,23.58-49.93,52.65-49.93h0Z"/>
      <path class="st40" d="M192.03,236.49c28.87,0,52.29,22.15,52.29,49.46s-23.41,49.47-52.29,49.47-52.28-22.15-52.28-49.47,23.41-49.46,52.28-49.46h0Z"/>
      <path class="st40" d="M192.14,236.55c28.67,0,51.92,21.94,51.92,49s-23.25,49-51.92,49-51.92-21.95-51.92-49,23.25-49,51.92-49h0Z"/>
      <path class="st3" d="M192.24,236.6c28.47,0,51.56,21.74,51.56,48.54s-23.09,48.55-51.56,48.55-51.56-21.74-51.56-48.55,23.09-48.54,51.56-48.54h0Z"/>
      <path class="st3" d="M192.35,236.66c28.27,0,51.2,21.53,51.2,48.08s-22.93,48.08-51.2,48.08-51.19-21.53-51.19-48.08,22.92-48.08,51.19-48.08h0Z"/>
      <path class="st18" d="M192.45,236.72c28.07,0,50.83,21.32,50.83,47.61s-22.76,47.61-50.83,47.61-50.83-21.32-50.83-47.61,22.76-47.61,50.83-47.61h0Z"/>
      <path class="st18" d="M192.55,236.77c27.87,0,50.47,21.11,50.47,47.14s-22.59,47.15-50.47,47.15-50.47-21.11-50.47-47.15,22.6-47.14,50.47-47.14h0Z"/>
      <path class="st18" d="M192.66,236.82c27.66,0,50.11,20.91,50.11,46.69s-22.45,46.68-50.11,46.68-50.11-20.91-50.11-46.68,22.44-46.69,50.11-46.69h0Z"/>
      <path class="st10" d="M192.76,236.88c27.47,0,49.74,20.7,49.74,46.22s-22.27,46.22-49.74,46.22-49.74-20.7-49.74-46.22,22.27-46.22,49.74-46.22h0Z"/>
      <path class="st31" d="M192.87,236.93c27.27,0,49.38,20.49,49.38,45.76s-22.11,45.75-49.38,45.75-49.38-20.49-49.38-45.75,22.11-45.76,49.38-45.76h0Z"/>
      <path class="st31" d="M192.97,236.99c27.06,0,49.02,20.28,49.02,45.29s-21.95,45.29-49.02,45.29-49.01-20.28-49.01-45.29,21.95-45.29,49.01-45.29h0Z"/>
      <path class="st31" d="M193.08,237.04c26.86,0,48.65,20.08,48.65,44.83s-21.79,44.83-48.65,44.83-48.66-20.07-48.66-44.83,21.79-44.83,48.66-44.83h0Z"/>
      <path class="st34" d="M193.18,237.1c26.66,0,48.29,19.86,48.29,44.37s-21.63,44.36-48.29,44.36-48.29-19.87-48.29-44.36,21.62-44.37,48.29-44.37h0Z"/>
      <path class="st32" d="M193.28,237.16c26.46,0,47.93,19.66,47.93,43.9s-21.47,43.9-47.93,43.9-47.93-19.66-47.93-43.9,21.46-43.9,47.93-43.9h0Z"/>
      <path class="st32" d="M193.39,237.21c26.27,0,47.56,19.45,47.56,43.44s-21.3,43.44-47.56,43.44-47.56-19.45-47.56-43.44,21.3-43.44,47.56-43.44h0Z"/>
      <path class="st32" d="M193.49,237.27c26.06,0,47.2,19.24,47.2,42.97s-21.14,42.98-47.2,42.98-47.2-19.25-47.2-42.98,21.13-42.97,47.2-42.97h0Z"/>
      <path class="st15" d="M193.59,237.32c25.86,0,46.84,19.04,46.84,42.51s-20.97,42.51-46.84,42.51-46.84-19.04-46.84-42.51,20.97-42.51,46.84-42.51h0Z"/>
      <path class="st33" d="M193.7,237.37c25.66,0,46.47,18.83,46.47,42.05s-20.81,42.04-46.47,42.04-46.48-18.83-46.48-42.04,20.81-42.05,46.48-42.05h0Z"/>
      <path class="st33" d="M193.8,237.43c25.46,0,46.11,18.62,46.11,41.58s-20.65,41.58-46.11,41.58-46.11-18.62-46.11-41.58,20.65-41.58,46.11-41.58h0Z"/>
      <path class="st33" d="M193.91,237.49c25.26,0,45.74,18.42,45.74,41.12s-20.48,41.12-45.74,41.12-45.75-18.42-45.75-41.12,20.48-41.12,45.75-41.12h0Z"/>
      <path class="st6" d="M194.01,237.54c25.06,0,45.38,18.21,45.38,40.66s-20.32,40.66-45.38,40.66-45.39-18.21-45.39-40.66,20.33-40.66,45.39-40.66h0Z"/>
      <path class="st0" d="M194.12,237.6c24.86,0,45.02,18,45.02,40.19s-20.16,40.19-45.02,40.19-45.02-18-45.02-40.19,20.16-40.19,45.02-40.19h0Z"/>
      <path class="st0" d="M194.22,237.65c24.66,0,44.65,17.79,44.65,39.73s-20,39.72-44.65,39.72-44.66-17.79-44.66-39.72,20-39.73,44.66-39.73h0Z"/>
      <path class="st0" d="M194.33,237.71c24.45,0,44.29,17.58,44.29,39.26s-19.84,39.26-44.29,39.26-44.3-17.58-44.3-39.26,19.83-39.26,44.3-39.26h0Z"/>
      <path class="st36" d="M194.43,237.76c24.26,0,43.92,17.38,43.92,38.79s-19.66,38.8-43.92,38.8-43.93-17.37-43.93-38.8,19.67-38.79,43.93-38.79h0Z"/>
      <path class="st36" d="M194.53,237.82c24.05,0,43.57,17.16,43.57,38.33s-19.51,38.34-43.57,38.34-43.57-17.17-43.57-38.34,19.51-38.33,43.57-38.33h0Z"/>
      <path class="st2" d="M194.63,237.87c23.86,0,43.21,16.96,43.21,37.87s-19.35,37.87-43.21,37.87-43.2-16.96-43.2-37.87,19.35-37.87,43.2-37.87h0Z"/>
      <path class="st13" d="M194.74,237.93c23.66,0,42.84,16.75,42.84,37.41s-19.18,37.41-42.84,37.41-42.84-16.76-42.84-37.41,19.18-37.41,42.84-37.41h0Z"/>
      <path class="st13" d="M194.84,237.98c23.46,0,42.47,16.55,42.47,36.95s-19.02,36.94-42.47,36.94-42.48-16.54-42.48-36.94,19.02-36.95,42.48-36.95h0Z"/>
      <path class="st13" d="M194.95,238.04c23.25,0,42.11,16.34,42.11,36.48s-18.86,36.48-42.11,36.48-42.12-16.33-42.12-36.48,18.86-36.48,42.12-36.48h0Z"/>
      <path class="st17" d="M195.05,238.09c23.05,0,41.75,16.13,41.75,36.02s-18.69,36.02-41.75,36.02-41.75-16.13-41.75-36.02,18.69-36.02,41.75-36.02h0Z"/>
      <path class="st1" d="M195.15,238.15c22.85,0,41.39,15.92,41.39,35.55s-18.54,35.55-41.39,35.55-41.39-15.92-41.39-35.55,18.54-35.55,41.39-35.55h0Z"/>
      <path class="st1" d="M195.26,238.2c22.65,0,41.02,15.71,41.02,35.1s-18.37,35.08-41.02,35.08-41.03-15.71-41.03-35.08,18.37-35.1,41.03-35.1h0Z"/>
      <path class="st1" d="M195.36,238.26c22.46,0,40.66,15.5,40.66,34.62s-18.21,34.62-40.66,34.62-40.66-15.51-40.66-34.62,18.21-34.62,40.66-34.62h0Z"/>
      <path class="st20" d="M195.47,238.31c22.25,0,40.29,15.3,40.29,34.16s-18.04,34.16-40.29,34.16-40.3-15.3-40.3-34.16,18.04-34.16,40.3-34.16h0Z"/>
      <path class="st21" d="M195.57,238.37c22.05,0,39.93,15.09,39.93,33.7s-17.88,33.7-39.93,33.7-39.93-15.1-39.93-33.7,17.89-33.7,39.93-33.7h0Z"/>
      <path class="st21" d="M195.68,238.43c21.85,0,39.57,14.88,39.57,33.23s-17.73,33.23-39.57,33.23-39.57-14.88-39.57-33.23,17.72-33.23,39.57-33.23h0Z"/>
      <path class="st21" d="M195.78,238.48c21.65,0,39.21,14.67,39.21,32.77s-17.56,32.77-39.21,32.77-39.21-14.68-39.21-32.77,17.56-32.77,39.21-32.77h0Z"/>
      <path class="st35" d="M195.88,238.53c21.45,0,38.85,14.47,38.85,32.31s-17.4,32.31-38.85,32.31-38.85-14.47-38.85-32.31,17.4-32.31,38.85-32.31h0Z"/>
      <path class="st16" d="M195.99,238.59c21.25,0,38.48,14.26,38.48,31.84s-17.23,31.84-38.48,31.84-38.48-14.26-38.48-31.84,17.23-31.84,38.48-31.84h0Z"/>
      <path class="st16" d="M196.09,238.65c21.05,0,38.12,14.05,38.12,31.38s-17.07,31.38-38.12,31.38-38.12-14.05-38.12-31.38,17.07-31.38,38.12-31.38h0Z"/>
      <path class="st16" d="M196.19,238.7c20.85,0,37.76,13.85,37.76,30.92s-16.9,30.92-37.76,30.92-37.75-13.85-37.75-30.92,16.9-30.92,37.75-30.92h0Z"/>
      <path class="st7" d="M196.3,238.75c20.65,0,37.4,13.64,37.4,30.45s-16.75,30.45-37.4,30.45-37.39-13.64-37.39-30.45,16.74-30.45,37.39-30.45h0Z"/>
      <path class="st11" d="M196.4,238.81c20.45,0,37.03,13.43,37.03,29.99s-16.58,29.98-37.03,29.98c-20.45,0-37.03-13.43-37.03-29.98s16.58-29.99,37.03-29.99h0Z"/>
      <path class="st11" d="M196.5,238.87c20.25,0,36.67,13.22,36.67,29.52s-16.42,29.52-36.67,29.52-36.66-13.22-36.66-29.52,16.42-29.52,36.66-29.52h0Z"/>
      <path class="st11" d="M196.61,238.92c20.05,0,36.3,13.01,36.3,29.06s-16.25,29.06-36.3,29.06-36.3-13.02-36.3-29.06,16.26-29.06,36.3-29.06h0Z"/>
      <path class="st30" d="M196.71,238.97c19.85,0,35.94,12.81,35.94,28.6s-16.09,28.6-35.94,28.6-35.94-12.81-35.94-28.6,16.09-28.6,35.94-28.6h0Z"/>
      <path class="st30" d="M196.82,239.03c19.65,0,35.58,12.6,35.58,28.13s-15.93,28.13-35.58,28.13-35.58-12.6-35.58-28.13,15.93-28.13,35.58-28.13h0Z"/>
      <path class="st23" d="M196.92,239.09c19.44,0,35.22,12.39,35.22,27.67s-15.77,27.67-35.22,27.67c-19.44,0-35.22-12.39-35.22-27.67s15.77-27.67,35.22-27.67h0Z"/>
      <path class="st23" d="M197.03,239.14c19.24,0,34.85,12.18,34.85,27.21s-15.61,27.21-34.85,27.21-34.85-12.18-34.85-27.21,15.6-27.21,34.85-27.21h0Z"/>
      <path class="st26" d="M197.13,239.19c19.05,0,34.49,11.97,34.49,26.74s-15.44,26.74-34.49,26.74-34.49-11.98-34.49-26.74,15.44-26.74,34.49-26.74h0Z"/>
      <path class="st26" d="M197.23,239.25c18.84,0,34.12,11.77,34.12,26.28s-15.29,26.28-34.12,26.28-34.12-11.77-34.12-26.28,15.28-26.28,34.12-26.28h0Z"/>
      <path class="st4" d="M197.34,239.31c18.64,0,33.76,11.56,33.76,25.81s-15.11,25.82-33.76,25.82-33.76-11.56-33.76-25.82,15.12-25.81,33.76-25.81h0Z"/>
      <path class="st4" d="M197.44,239.36c18.44,0,33.39,11.35,33.39,25.35s-14.95,25.35-33.39,25.35-33.4-11.36-33.4-25.35,14.96-25.35,33.4-25.35h0Z"/>
      <path class="st8" d="M197.54,239.42c18.24,0,33.04,11.14,33.04,24.88s-14.8,24.88-33.04,24.88-33.03-11.14-33.03-24.88,14.79-24.88,33.03-24.88h0Z"/>
    </g>
    <path class="st44" d="M203.81,321.93c-31.49-19.68-50.3-36.3-50.3-36.3-14-11.59-5.9-27.77-5.9-27.77,6.34-12.38,21.69-19.11,28.23-21.5-.2.04-.41.09-.61.13-8.57,2.81-15.61,6.06-21.32,9.31-13.7,9.36-23.48,24.04-26.37,41.07,1.22,5.83,3.67,9.7,3.67,9.7,8.53,14.65,29.96,29.08,29.96,29.08,8.31,5.25,17.5,14.87,17.5,14.87,5.83,7.98,6.95,14.86,6.87,19.23,1.18.07,2.38.11,3.58.11,5.9,0,11.61-.82,17.01-2.35,4.05-3.31,6.21-6.5,6.21-6.5,13.34-17.49-8.52-29.08-8.52-29.08ZM158.66,337.34l-9.03-6.41c-15-11.11-20.7-22.79-22.87-29.85,1.7,29.25,23.53,53.09,51.84,57.89-.72-1.25-1.79-3.03-3.32-5.59-6.12-10.21-16.62-16.04-16.62-16.04ZM232.55,287.89s-20.58-13.96-27.69-18.14c0,0-21.32-12.25-18.38-34.55,0,0-31.61,5.39-28.18,25,0,0-.49,8.57,24.75,24.02l28.92,19.6s39.25,21.12,5.29,49.34c16.64-8.42,29-24.05,32.96-42.79-.06-.41-.14-.8-.26-1.16,0,0-1.72-10.78-17.4-21.32ZM195.9,238.08s3.71,10.06,15.53,17.27c0,0,27.88,13.26,39.08,30.58-3.55-19.16-15.85-35.24-32.6-43.96-2.35-1.17-5.02-2.37-7.96-3.46-5.57-1.97-11.51-3.18-17.69-3.49,1.11.56,2.57,1.52,3.64,3.06Z"/>
    <g>
      <path class="st43" d="M189.19,232.63s-31.61,5.39-28.18,24.99c0,0-.49,8.58,24.75,24.02l28.92,19.6s48.28,25.98-8.58,58.81c0,0,20.09-1.71,40.19-31.85,0,0,8.57-14.94,6.37-21.56,0,0-1.72-10.78-17.4-21.32,0,0-20.58-13.97-27.69-18.13,0,0-21.32-12.26-18.38-34.55Z"/>
      <path class="st46" d="M180.75,233.15s-23.11,6.59-31.27,22.52c0,0-8.09,16.18,5.9,27.77,0,0,18.81,16.62,50.3,36.3,0,0,21.86,11.59,8.53,29.08,0,0-10.06,14.87-27.55,13.77,0,0,3.94-10.5-6.12-24.27,0,0-9.18-9.61-17.49-14.86,0,0-21.43-14.43-29.96-29.08,0,0-10.72-16.83,1.53-33.23,0,0,11.59-17.71,46.14-27.99Z"/>
      <path class="st48" d="M124.12,294.74s.58,18.96,24.2,36.44l9.03,6.41s10.5,5.83,16.62,16.04c6.12,10.2,4.66,8.17,4.66,8.17,0,0-20.81,1.04-40.93-23.45,0,0-16.4-23.53-13.59-43.61Z"/>
      <path class="st47" d="M191.69,232.72s3.27.87,5.25,3.72c0,0,3.72,10.06,15.52,17.28,0,0,31.26,14.87,40.89,33.67,0,0-4.15-25.36-23.84-40.68,0,0-16.62-12.89-37.83-13.99Z"/>
    </g>
  </g>
  <g class="st45">
    <path class="st41" d="M131.88,309.36l.09,1.12,3.27-.09h3.18l3.36.19,4.48.09,2.24,1.12,1.03,1.12.93,1.12h1.77l.56-.75s.47-.65,1.12-.65,2.34.09,2.99,0c.65-.09,1.4-.56,1.78-.56s2.9-.28,2.9-.28c0,0,2.06-.37,2.34-.37h2.52l1.59.56.93.93.93,1.12.56,1.96.56,2.05v2.05l.47,1.78.28.93.75,1.21,1.12,1.31,1.31.75,1.12.28,1.4.66.47,1.31-.09,1.59-.19,1.5-.56,1.31v1.87l.09,1.78.56,1.49.47.84.84,1.31.09,1.31.19.93h1.59l2.33-.09.47-1.21,1.03-1.31,1.59-.56.56.56s1.31.09,1.59-.09c.28-.19,1.12-.66,1.12-.66l2.05-.65,1.49-.84,1.21-.65,2.43-.56,2.05-.47,1.4-.56,1.5-.47,2.15-.47,2.05-.28,1.4-.28,1.59-.19h2.8l1.96-.09,2.06-.75s2.15-.93,2.15-1.21,2.05-1.59,2.05-1.59l1.12-1.59.93-2.33.84-2.24.75-1.4.93-1.68,1.03-1.31.56-1.87.65-2.15,1.21-1.49,2.8-.09.75-1.21.93-2.24,1.21-1.59s.09-1.21.09-1.68.65-3.17.65-3.17l-.37-1.59-.65-.84.28-1.96.93-.56-.09-1.68-1.03-.75s.09-1.31.09-1.68.84-1.87.84-1.87l.47-.75s.09-1.31.75-1.68c.65-.37,1.31-.56,1.31-.56l.75-.09.84.19h3.64l.19-.84-2.05-1.87s-1.21-1.77-1.31-2.05c-.09-.28.19-3.08.19-3.08l.47-2.8,1.03-.56h1.59l.19-1.5.75-1.77,1.03-1.21.93-1.12.09-2.24-2.34-1.12-1.68-.75-1.96-.75h-4.86l-1.4.56h-1.21l-.37-1.31-.37-1.87-1.49-1.31-.93-1.21-1.03-.47s-1.31-.19-1.68-.19h-2.05l-.93-.09-1.68-.65-3.27-1.77-2.15-1.68-1.59-1.31s-1.12-.09-1.5-.09-1.77.19-1.77.19l-.19.93-1.31.09-2.24-.09-1.59-1.68-.47-1.12-.47-1.03-1.31-.84-1.68-.28-1.68.09-3.36,2.33-5.7,3.64-5.14,2.52-2.34.75-1.49.65-.19-2.52s-1.12-1.31-1.4-1.31h-1.77l-1.12,1.4-1.59.56-.93.28.09,2.71.56,1.96-.09,2.15-.37,1.59-1.68.93-1.49-.19-1.59.75-.19,1.68-.19,2.8.93,1.31.19,1.59.19,1.68-.19,1.59-1.4,1.03-.65,1.21.28,1.5.75.37.28,1.59-.37,2.15.28,1.77s-.56.56-.75,1.12c-.19.56-1.77,2.05-1.77,2.05l-2.15.84-1.77,1.68-1.03,1.12-1.21-1.4s-1.5-1.03-1.96-1.03h-4.67l-2.52-.09-1.5.28-1.03,1.21-1.49.56-2.15.19-1.96.37-2.52.37-1.87.09s-1.12.09-1.4.37c-.28.28-1.4.65-1.68,1.59-.28.93-2.71,3.74-2.71,3.74,0,0-1.77,2.24-2.06,2.71-.28.47-.28,1.96-.28,1.96Z"/>
  </g>
  <path class="st42" d="M201.74,253.04l1.68.28,1.31.84.47,1.03.47,1.12,1.59,1.68,2.24.09,1.31-.09.19-.93s1.4-.19,1.77-.19,1.5.09,1.5.09l1.59,1.31,2.15,1.68,3.27,1.77,1.68.65.93.09h2.05c.37,0,1.68.19,1.68.19l1.03.47.93,1.21,1.49,1.31.37,1.87.37,1.31h1.21l1.4-.56h4.86l1.96.75,1.68.75,2.34,1.12-.09,2.24-.93,1.12-1.03,1.21-.75,1.77-.19,1.5h-1.59l-1.03.56-.47,2.8s-.28,2.8-.19,3.08c.09.28,1.31,2.05,1.31,2.05l2.05,1.87-.19.84h-3.64l-.84-.19-.75.09s-.65.19-1.31.56c-.65.37-.75,1.68-.75,1.68l-.47.75s-.84,1.5-.84,1.87-.09,1.68-.09,1.68l1.03.75.09,1.68-.93.56-.28,1.96.65.84.37,1.59s-.65,2.71-.65,3.17-.09,1.68-.09,1.68l-1.21,1.59-.93,2.24-.75,1.21-2.8.09-1.21,1.49-.65,2.15-.56,1.87-1.03,1.31-.93,1.68-.75,1.4-.84,2.24-.93,2.33-1.12,1.59s-2.05,1.31-2.05,1.59-2.15,1.21-2.15,1.21l-2.06.75-1.96.09h-2.8l-1.59.19-1.4.28-2.05.28-2.15.47-1.5.47-1.4.56-2.05.47-2.43.56-1.21.65-1.49.84-2.05.65s-.84.47-1.12.66c-.14.09-.54.12-.9.12s-.68-.02-.68-.02l-.56-.56-1.59.56-1.03,1.31-.47,1.21-2.33.09h-1.59l-.19-.93-.09-1.31-.84-1.31-.47-.84-.56-1.49-.09-1.78v-1.87l.56-1.31.19-1.5.09-1.59-.47-1.31-1.4-.66-1.12-.28-1.31-.75-1.12-1.31-.75-1.21-.28-.93-.47-1.78v-2.05l-.56-2.05-.56-1.96-.93-1.12-.93-.93-1.59-.56h-2.52c-.28,0-2.34.37-2.34.37,0,0-2.52.28-2.9.28s-1.12.47-1.78.56c-.22.03-.55.04-.92.04-.74,0-1.63-.04-2.07-.04-.65,0-1.12.65-1.12.65l-.56.75h-1.77l-.93-1.12-1.03-1.12-2.24-1.12-4.48-.09-3.36-.19h-3.18l-3.27.09-.09-1.12s0-1.5.28-1.96c.28-.47,2.06-2.71,2.06-2.71,0,0,2.43-2.8,2.71-3.74.28-.93,1.4-1.31,1.68-1.59.28-.28,1.4-.37,1.4-.37l1.87-.09,2.52-.37,1.96-.37,2.15-.19,1.49-.56,1.03-1.21,1.5-.28,2.52.09h4.67c.47,0,1.96,1.03,1.96,1.03l1.21,1.4,1.03-1.12,1.77-1.68,2.15-.84s1.59-1.49,1.77-2.05c.19-.56.75-1.12.75-1.12l-.28-1.77.37-2.15-.28-1.59-.75-.37-.28-1.5.65-1.21,1.4-1.03.19-1.59-.19-1.68-.19-1.59-.93-1.31.19-2.8.19-1.68,1.59-.75,1.49.19,1.68-.93.37-1.59.09-2.15-.56-1.96-.09-2.71.93-.28,1.59-.56,1.12-1.4h1.77c.28,0,1.4,1.31,1.4,1.31l.19,2.52,1.49-.65,2.34-.75,5.14-2.52,5.7-3.64,3.36-2.33,1.68-.09M201.74,251.04s-.08,0-.11,0l-1.68.09c-.37.02-.73.14-1.03.35l-3.33,2.31-5.57,3.56-4.9,2.41-1.29.41c-.06-.36-.22-.7-.46-.98-1.3-1.52-2.01-2-2.92-2h-1.77c-.61,0-1.18.28-1.56.75l-.76.95-1,.36-.89.27c-.87.26-1.46,1.08-1.43,1.99l.09,2.71c0,.16.03.32.08.48l.47,1.65-.07,1.64-.13.54-.34.19-.85-.11c-.08-.01-.16-.02-.25-.02-.29,0-.58.06-.85.19l-1.59.75c-.63.3-1.06.9-1.14,1.59l-.19,1.68s0,.06,0,.09l-.19,2.8c-.03.46.1.92.37,1.29l.63.89.13,1.08.16,1.44-.06.5-.7.51c-.24.18-.44.4-.58.66l-.65,1.21c-.22.4-.29.87-.21,1.32l.28,1.5c.1.56.44,1.04.92,1.33l.05.26-.31,1.8c-.04.22-.04.44,0,.65l.14.9c-.17.26-.35.56-.47.89-.17.23-.62.72-1.04,1.13l-1.78.69c-.24.09-.46.23-.65.41l-1.37,1.3s-.09-.07-.13-.1c-2.01-1.38-2.74-1.38-3.09-1.38h-4.63l-2.48-.09s-.05,0-.07,0c-.12,0-.25.01-.37.03l-1.5.28c-.45.09-.86.32-1.16.67l-.69.82-.75.28-1.88.16c-.07,0-.13.02-.2.03l-1.92.37-2.39.35-1.77.09s-.04,0-.06,0c-1.58.13-2.25.59-2.54.84-.03.02-.07.04-.11.07-.56.34-1.73,1.03-2.17,2.42-.21.44-1.28,1.85-2.32,3.05-.02.02-.04.05-.06.07-.69.88-1.9,2.42-2.2,2.92-.37.63-.56,1.63-.56,2.99,0,.06,0,.11,0,.17l.09,1.12c.09,1.04.96,1.83,1.99,1.83.02,0,.04,0,.06,0l3.24-.09h3.09l3.31.18s.05,0,.07,0l4.03.08,1.51.75.75.81.9,1.08c.38.46.94.72,1.54.72h1.77c.63,0,1.22-.3,1.6-.8l.44-.59c.11,0,.23,0,.36,0,.42.01.91.03,1.35.03.53,0,.91-.02,1.2-.06.58-.08,1.11-.3,1.5-.46.08-.03.16-.07.23-.09.59-.04,1.85-.17,2.88-.28.05,0,.09-.01.14-.02.79-.14,1.76-.31,2.05-.34h2.11l.84.29.55.55.61.73.44,1.55.48,1.77v1.79c0,.17.02.34.07.51l.47,1.78s.01.05.02.07l.28.93c.05.17.12.32.21.47l.75,1.21c.06.09.12.18.19.26l1.12,1.31c.15.17.33.32.52.43l1.31.75c.16.09.33.16.51.21l.93.23.47.22.05.14-.07,1.11-.14,1.15-.45,1.05c-.11.25-.16.52-.16.79v1.87s0,.07,0,.11l.09,1.78c.01.2.05.41.12.6l.56,1.49c.03.09.08.18.12.27l.47.84s.04.07.06.11l.56.88.06.8c0,.08.02.17.03.25l.19.93c.19.93,1.01,1.61,1.96,1.61h1.59s.05,0,.08,0l2.33-.09c.8-.03,1.5-.54,1.79-1.28l.36-.93.44-.56c.26.14.54.23.84.25,0,0,.39.03.82.03.69,0,1.41-.05,2.01-.45.11-.08.48-.29.82-.48l1.86-.59c.13-.04.26-.1.37-.16l1.49-.84.95-.51,2.17-.5,2.05-.47c.1-.02.2-.05.3-.09l1.33-.53,1.34-.42,1.98-.43,1.98-.27s.08-.01.12-.02l1.32-.27,1.39-.16h2.68s.06,0,.09,0l1.96-.09c.2,0,.4-.05.59-.12l2.06-.75s.08-.03.11-.04c1.5-.65,2.57-1.17,3.06-1.96.3-.23.88-.64,1.42-.98.22-.14.41-.32.56-.53l1.12-1.59c.09-.13.16-.27.22-.41l.93-2.34.81-2.16.69-1.29.84-1.51.93-1.18c.16-.2.27-.42.34-.66l.56-1.87.54-1.76.39-.48,1.89-.06c.67-.02,1.28-.38,1.64-.95l.75-1.21c.06-.09.1-.18.14-.28l.83-2,1.06-1.38c.24-.31.38-.68.41-1.06.02-.21.09-1.23.1-1.77.05-.37.34-1.71.6-2.77.07-.3.07-.62,0-.93l-.37-1.59c-.07-.28-.19-.54-.37-.77l-.13-.17.03-.18.12-.07c.64-.38,1.01-1.08.97-1.83l-.09-1.68c-.03-.6-.33-1.15-.82-1.51l-.14-.1c0-.15.02-.3.02-.43.1-.25.34-.73.57-1.13l.44-.7c.17-.28.28-.59.3-.92,0-.07.02-.16.04-.24.18-.08.35-.15.45-.18l.22-.03.5.11c.14.03.29.05.44.05h3.64c.94,0,1.75-.65,1.95-1.57l.19-.84c.15-.7-.08-1.43-.61-1.91l-1.88-1.71c-.31-.45-.64-.95-.84-1.28.02-.52.1-1.47.18-2.28l.27-1.62h.83c1.01,0,1.86-.75,1.98-1.75l.15-1.22.52-1.24.83-.98.94-1.13c.28-.34.44-.76.46-1.2l.09-2.24c.03-.8-.41-1.54-1.13-1.89l-2.34-1.12s-.04-.02-.05-.02l-1.68-.75s-.07-.03-.1-.04l-1.96-.75c-.23-.09-.47-.13-.71-.13h-4.86c-.25,0-.51.05-.74.14l-.4.16-.26-1.31c-.09-.43-.31-.82-.64-1.11l-1.34-1.18-.81-1.06c-.2-.26-.46-.47-.76-.6l-1.03-.47c-.17-.08-.36-.13-.55-.16-.54-.08-1.52-.21-1.96-.21h-1.96l-.56-.06-1.31-.51-3.01-1.63-2-1.56-1.57-1.29c-.31-.26-.7-.42-1.11-.45-.28-.02-1.24-.1-1.66-.1s-1.47.13-2.04.2c-.63.09-1.17.46-1.48,1l-1.1-.05-.78-.83-.33-.78s-.02-.04-.02-.06l-.47-1.03c-.16-.35-.42-.65-.74-.86l-1.31-.84c-.23-.15-.48-.25-.75-.29l-1.68-.28c-.11-.02-.22-.03-.33-.03h0Z"/>
  <g>
    <path class="st41" d="M272,280.59c0-3.83.77-7.13,2.32-9.91,1.55-2.78,3.6-5.08,6.15-6.9,3.1-2.37,6.88-4.1,11.35-5.2,4.46-1.09,9.3-1.64,14.49-1.64s10.46.59,15.79,1.76c5.33,1.17,11.05,3.29,17.16,6.36l-5.47,11.57c-4.65-2.28-9.16-3.94-13.54-4.99-4.38-1.05-8.75-1.57-13.12-1.57-3.37,0-6.59.23-9.64.68-3.05.46-5.58,1.42-7.59,2.88-2.46,1.74-3.69,4.06-3.69,6.99,0,1.19.27,2.17.82,2.95.55.78,1.32,1.48,2.32,2.12,1.18.91,2.6,1.58,4.24,1.99,1.64.41,3.19.75,4.65,1.03l16.68,3.01c4.1.73,8.14,1.83,12.1,3.29,3.96,1.46,7.31,3.52,10.05,6.17,1.82,1.83,3.23,3.95,4.24,6.37,1,2.42,1.5,5.32,1.5,8.7,0,4.38-.87,8.13-2.62,11.23-1.75,3.1-4.05,5.62-6.9,7.53-3.68,2.56-8.11,4.36-13.31,5.41-5.2,1.05-10.53,1.57-16,1.57-3.47,0-6.61-.14-9.43-.41-2.83-.27-5.56-.71-8.2-1.3-2.64-.59-5.24-1.37-7.79-2.32-2.55-.96-5.24-2.07-8.07-3.35l4.51-12.03c10.02,4.01,19.6,6.02,28.71,6.02,4.92,0,9.07-.32,12.44-.96,3.37-.64,6.29-1.87,8.75-3.69,2.19-1.73,3.28-4.15,3.28-7.25,0-1.55-.3-2.87-.89-3.97-.59-1.09-1.39-2.05-2.39-2.87-1.46-1-3.23-1.85-5.32-2.53-2.09-.68-4.32-1.25-6.68-1.71l-18.14-3.14c-3.73-.64-7.12-1.57-10.16-2.8-3.05-1.23-5.61-2.89-7.7-4.99-1.55-1.64-2.75-3.6-3.61-5.88-.86-2.28-1.29-5.01-1.29-8.2Z"/>
    <path class="st41" d="M353.75,258.44h63.58v13.4h-48.95v19.14h43.75v13.13h-43.75v23.24h50.86v13.13h-65.49v-82.03Z"/>
    <path class="st41" d="M428.12,258.44h75.33v13.13h-30.49v68.9h-14.36v-68.9h-30.49v-13.13Z"/>
    <path class="st41" d="M529.57,258.44l28.98,40.6,28.3-40.6h15.72v82.03h-14.63v-60.16h-.55l-26.87,38.14h-5.32l-27.15-38.14h-.55v60.16h-13.81v-82.03h15.86Z"/>
    <path class="st41" d="M630.6,340.47h-14.35v-82.03h14.35v82.03Z"/>
    <path class="st41" d="M720.43,258.44v82.03h-13.54l-48.26-58.93v58.93h-14.35v-82.03h13.54l48.54,59.06v-59.06h14.08Z"/>
    <path class="st41" d="M782.77,258.44l36.37,82.03h-15.72l-6.84-15.04h-43.75l-6.7,15.04h-15.45l36.37-82.03h15.72ZM758.43,312.31h32.67l-15.72-38.96h-1.64l-15.31,38.96Z"/>
    <path class="st41" d="M827.88,280.59c0-3.83.77-7.13,2.33-9.91,1.55-2.78,3.6-5.08,6.15-6.9,3.1-2.37,6.88-4.1,11.35-5.2,4.46-1.09,9.3-1.64,14.49-1.64s10.46.59,15.79,1.76c5.33,1.17,11.05,3.29,17.16,6.36l-5.47,11.57c-4.65-2.28-9.16-3.94-13.54-4.99-4.37-1.05-8.75-1.57-13.12-1.57-3.37,0-6.59.23-9.64.68-3.05.46-5.58,1.42-7.59,2.88-2.46,1.74-3.69,4.06-3.69,6.99,0,1.19.27,2.17.82,2.95.55.78,1.32,1.48,2.32,2.12,1.18.91,2.6,1.58,4.24,1.99,1.64.41,3.19.75,4.65,1.03l16.68,3.01c4.1.73,8.13,1.83,12.1,3.29,3.96,1.46,7.32,3.52,10.05,6.17,1.82,1.83,3.23,3.95,4.24,6.37,1,2.42,1.5,5.32,1.5,8.7,0,4.38-.88,8.13-2.62,11.23-1.75,3.1-4.05,5.62-6.9,7.53-3.68,2.56-8.11,4.36-13.31,5.41-5.2,1.05-10.53,1.57-16,1.57-3.46,0-6.61-.14-9.43-.41-2.83-.27-5.56-.71-8.2-1.3-2.65-.59-5.24-1.37-7.79-2.32-2.55-.96-5.24-2.07-8.07-3.35l4.51-12.03c10.03,4.01,19.6,6.02,28.71,6.02,4.92,0,9.07-.32,12.44-.96,3.37-.64,6.29-1.87,8.75-3.69,2.19-1.73,3.28-4.15,3.28-7.25,0-1.55-.3-2.87-.89-3.97-.59-1.09-1.39-2.05-2.39-2.87-1.46-1-3.23-1.85-5.32-2.53-2.09-.68-4.32-1.25-6.68-1.71l-18.14-3.14c-3.73-.64-7.12-1.57-10.16-2.8-3.05-1.23-5.61-2.89-7.7-4.99-1.55-1.64-2.75-3.6-3.62-5.88-.86-2.28-1.29-5.01-1.29-8.2Z"/>
  </g>
</svg>