<svg viewBox="0 0 24 24" xmlns="http://www.w3.org/2000/svg" fill="#0F3B7D">
  <!-- Shield Path -->
  <path d="M12 2 L3 5 L3 11 C3 16.5 6.8 21.7 12 23 C17.2 21.7 21 16.5 21 11 L21 5 L12 2 Z" />
  <!-- Lock Body (White) -->
  <path d="M9 12 H15 V17 H9 V12 Z" fill="#FFFFFF" />
  <!-- Lock Shackle (White) -->
  <path d="M12 8 C10.3 8 9 9.3 9 11 L9 13 H11 L11 11 C11 10.4 11.4 10 12 10 C12.6 10 13 10.4 13 11 L13 13 H15 L15 11 C15 9.3 13.7 8 12 8 Z" fill="#FFFFFF" />
  <!-- Keyhole (Blue) -->
  <circle cx="12" cy="14.5" r="1" fill="#0F3B7D" />
</svg>

