<?xml version="1.0" encoding="UTF-8"?>
<svg id="Layer_1" xmlns="http://www.w3.org/2000/svg" viewBox="0 0 141.73 120.42">
  <path fill="#0f3b7d" d="M97.15,112.41h-15.59v-26.46l60.17-43.15-15.59-21.71c-17.3,11.89-34.1,26.11-51.61,37.54-2.96,1.93-5.87,4.45-9.65,4.48V28.31c2.82-.49,10.44,1.47,11.45-1.96.73-2.48.46-18.2.18-21.63C76.18.66,71.8,0,71.8,0H5.76S.84.87.38,3.31c-.51,2.66-.5,19.76,0,22.44.76,4.06,6.47,2.18,9.4,2.56v84.1c-10.16,0-8.51,8.01-4.02,8.01,27.73,0,61.86-.04,91.22-.04,7.82,0,5.21-7.97.17-7.97ZM56.91,60.93H18.49V28.31h38.42v32.62ZM73.58,112.41h-8.7v-38.79c0-2.78,8.7-4.28,8.7,1.45v37.34ZM116.71,38.45s7.48-5.91,7.95-5.79l5.33,7.62-12.91,9.05-.37-10.88ZM108.38,44.26l1.09,10.92-11.22,7.93-1.38-10.38,11.52-8.47ZM89.53,58.03l.59,10.36-8.55,7.04c-.35-3.27-1.25-6.62-3.57-9.07l11.53-8.33Z"/>
</svg>
