<?xml version="1.0" encoding="UTF-8"?>
<svg id="Layer_1" xmlns="http://www.w3.org/2000/svg" viewBox="0 0 141.73 110.36">
  <path fill="#0f3b7d" d="M140.36,64.35l-31.44-31.44V12.17c0-2.59-2.1-4.68-4.68-4.68s-4.68,2.09-4.68,4.68v11.38L77.38,1.37c-1.83-1.83-4.79-1.83-6.61,0l-29.02,29.02c-1.83,1.83-1.83,4.79,0,6.62,1.83,1.83,4.79,1.83,6.61,0l25.71-25.72,59.67,59.67c.91.92,2.11,1.37,3.31,1.37s2.4-.45,3.31-1.37c1.83-1.82,1.83-4.79,0-6.61Z"/>
  <path fill="#0f3b7d" d="M126.98,69.72l-49.6-49.6c-.88-.88-2.07-1.37-3.31-1.37s-2.43.49-3.31,1.37l-19.06,19.06c12.62,6.29,21.65,18.69,23.21,33.34,3.86.77,6.74,4.17,6.74,8.2v17.78c0,2.85,1.07,5.58,3.01,7.67,2.13,2.31,5.16,3.63,8.29,3.63h24.21c6.23,0,11.31-5.07,11.31-11.31v-24.21c0-.71-.07-1.43-.21-2.14-.18-.92-.63-1.76-1.29-2.42Z"/>
  <path fill="#0f3b7d" d="M35.42,39.52C15.86,39.52,0,55.38,0,74.94s15.86,35.42,35.42,35.42,35.42-15.86,35.42-35.42-15.86-35.42-35.42-35.42ZM57.4,67.76l-22.63,22.64c-1.14,1.14-2.64,1.71-4.13,1.71s-2.99-.57-4.13-1.71l-13.07-13.07c-2.28-2.28-2.28-5.98,0-8.27,2.28-2.28,5.99-2.28,8.27,0l8.94,8.94,18.5-18.5c2.28-2.28,5.98-2.28,8.27,0,2.28,2.28,2.28,5.98,0,8.27Z"/>
</svg>
