<?xml version="1.0" encoding="UTF-8"?>
<svg id="Layer_1" xmlns="http://www.w3.org/2000/svg" version="1.1" viewBox="0 0 141.73 123.32">
  <path fill="#0f3b7d" fill-rule="evenodd" d="M8.53,25h118.39c2.4,0,4.49.9,6.14,2.54,1.5,1.5,2.55,3.59,2.55,5.99v18.11h-37.11c-2.99,0-5.83,1.2-7.78,3.29-2.09,1.95-3.29,4.79-3.29,7.79v22.9c0,3.14,1.2,5.84,3.29,7.78,1.95,2.09,4.79,3.29,7.78,3.29h37.11v18.11c0,2.39-1.05,4.49-2.55,6.13-1.64,1.49-3.74,2.39-6.14,2.39H8.53c-2.25,0-4.49-.9-5.98-2.39C1.05,119.29,0,117.19,0,114.8V33.53C0,31.13,1.05,29.03,2.54,27.54c1.5-1.64,3.74-2.54,5.98-2.54h0ZM98.48,57.77h38.47c2.69,0,4.78,2.24,4.78,4.94v22.9c0,2.69-2.09,4.94-4.78,4.94h-38.47c-2.69,0-4.8-2.24-4.8-4.94v-22.9c0-2.7,2.1-4.94,4.8-4.94h0ZM8.38,19.91C34.87,13.32,81.57,6.59,107.91,0,110.3,0,111.8,1.05,112.7,2.85c1.5,5.69,3,11.37,4.49,17.06H8.38ZM117.04,64.36c5.39,0,9.73,4.19,9.73,9.58s-4.34,9.58-9.73,9.58-9.58-4.34-9.58-9.58,4.35-9.58,9.58-9.58h0Z"/>
</svg>
