<?xml version="1.0" encoding="utf-8"?>
<!-- Uploaded to: SVG Repo, www.svgrepo.com, Generator: SVG Repo Mixer Tools -->
<svg width="800px" height="800px" viewBox="0 -79.91 378.262 378.262" xmlns="http://www.w3.org/2000/svg">
  <g id="Group_38" data-name="Group 38" transform="translate(-1934.869 -37.226)">
    <g id="Group_36" data-name="Group 36">
      <g id="Group_34" data-name="Group 34">
        <path id="Path_180" data-name="Path 180" d="M2102.422,139.667h6.014v6.886h-6.014v6.873h6.014v6.886h-6.014v6.872h6.014v6.886h-6.014v6.872h6.014v6.886h-6.014V194.7h6.014v6.886h-6.014v6.873h6.014v6.886h-6.014v6.872h6.014V229.1h-6.014v6.872h6.014v6.886h-6.014v11.311h-45.541V242.863h-6.014v-6.886h6.014V229.1h-6.014v-6.886h6.014v-6.872h-6.014V208.46h6.014v-6.873h-6.014V194.7h6.014v-6.872h-6.014v-6.886h6.014v-6.872h-6.014v-6.886h6.014v-6.872h-6.014v-6.886h6.014v-6.873h-6.014v-6.886h51.555Z" fill="#91ca9d" fill-rule="evenodd"/>
        <path id="Path_181" data-name="Path 181" d="M2137.129,88.9V254.174h-44.8V130.036Z" fill="#91ca9d" fill-rule="evenodd"/>
        <path id="Path_182" data-name="Path 182" d="M2092.332,104.161l44.8-41.138V77.985l-44.8,41.138Z" fill="#91ca9d" fill-rule="evenodd"/>
        <path id="Path_183" data-name="Path 183" d="M1983.882,124.9h6.975v-10.35h6.075v-6.975h5.962v-7.76c-7.413-.284-13.022-1.613-13.022-3.208s5.609-2.922,13.022-3.207V88.812c-4.75-.3-8.24-1.853-8.24-3.032s3.49-2.8,8.24-3.1V76.167a7.2,7.2,0,1,1,5.945,0v6.512c4.749.3,8.24,1.922,8.24,3.1s-3.491,2.735-8.24,3.032V93.4c7.412.285,13.021,1.612,13.021,3.207s-5.609,2.924-13.021,3.208v7.76h5.962v6.975h6.075V124.9H2032.8v10.351h-4.951V254.174h-43.968V135.252h-4.951V124.9Z" fill="#91ca9d" fill-rule="evenodd"/>
        <path id="Path_184" data-name="Path 184" d="M1995.091,179.468h74.659v10.465h-4.744v64.241l-45.122-.24.273-22.116C2020.872,206.824,2011.3,186.017,1995.091,179.468Z" fill="#91ca9d" fill-rule="evenodd"/>
        <path id="Path_185" data-name="Path 185" d="M2092.332,79.861l44.8-41.138V53.685l-44.8,41.138Z" fill="#91ca9d" fill-rule="evenodd"/>
        <g id="Group_33" data-name="Group 33">
          <path id="Path_186" data-name="Path 186" d="M2234.523,126.823V254.174h-22V155.506Z" fill="#91ca9d" fill-rule="evenodd"/>
          <path id="Path_187" data-name="Path 187" d="M2242.588,126.823V254.174h22V155.506Z" fill="#91ca9d" fill-rule="evenodd"/>
        </g>
        <path id="Path_188" data-name="Path 188" d="M2238.556,76.976l4.532,23.8,4.531,23.8-9.063-10.125-9.063,10.125,4.531-23.8Z" fill="#91ca9d" fill-rule="evenodd"/>
        <path id="Path_189" data-name="Path 189" d="M2257.513,211.435h.15l5.133-7.173,5.937-8.3,5.937,8.3,5.25,7.173,5.255-7.173,5.937-8.3,5.937,8.3,5.133,7.173h3.546v7.734h-3.4v35h-44.817v-35h-3.4v-7.734Z" fill="#91ca9d" fill-rule="evenodd"/>
        <path id="Path_190" data-name="Path 190" d="M2279.921,197.465a7.2,7.2,0,1,0-7.2-7.2A7.214,7.214,0,0,0,2279.921,197.465Z" fill="#91ca9d" fill-rule="evenodd"/>
        <path id="Path_191" data-name="Path 191" d="M2128.122,127.441h21.441V227.594a7.185,7.185,0,0,0,7.314,7h0a7.185,7.185,0,0,0,7.314-7V127.441h21.44V254.174h-57.51Z" fill="#91ca9d" fill-rule="evenodd"/>
        <path id="Path_192" data-name="Path 192" d="M2173.4,233.3h4.972v-8.378H2173.4V204.039h4.972v-8.378H2173.4V174.782h20.249V179.9h8.649v-5.118h20.25v20.879h-4.972v8.378h4.972v20.879h-4.972V233.3h4.972v20.878H2173.4Z" fill="#91ca9d" fill-rule="evenodd"/>
        <path id="Path_193" data-name="Path 193" d="M1934.869,196.872h16.144v-9.781h6.692l2.124-10.9,3.222-16.532,3.221,16.532,2.125,10.9h6.692v9.781h16.143v57.3h-16.143V224.987c0-6.291-5.417-11.438-12.038-11.438h0c-6.621,0-12.038,5.147-12.038,11.438v29.187h-16.144Z" fill="#91ca9d" fill-rule="evenodd"/>
      </g>
      <g id="Group_35" data-name="Group 35">
        <path id="Path_194" data-name="Path 194" d="M2102.422,254.174h-10.09V139.667h16.1v6.886h-6.014v6.873h6.014v6.887h-6.014v6.872h6.014v6.886h-6.014v6.872h6.014v6.887h-6.014V194.7h6.014v6.886h-6.014v6.873h6.014v6.886h-6.014v6.873h6.014V229.1h-6.014v6.873h6.014v6.886h-6.014Z" fill="#29a555" fill-rule="evenodd"/>
        <rect id="Rectangle_12" data-name="Rectangle 12" width="9.007" height="126.732" transform="translate(2128.122 127.441)" fill="#29a555"/>
        <rect id="Rectangle_13" data-name="Rectangle 13" width="7.35" height="57.301" transform="translate(1983.882 196.872)" fill="#29a555"/>
        <path id="Path_195" data-name="Path 195" d="M1995.091,179.468h32.759v74.508l-7.966-.042.273-22.116C2020.872,206.824,2011.3,186.017,1995.091,179.468Z" fill="#29a555" fill-rule="evenodd"/>
        <path id="Path_196" data-name="Path 196" d="M2056.881,179.468h12.869v10.466h-4.743v64.241l-8.126-.043V242.863h-6.014v-6.886h6.014V229.1h-6.014v-6.886h6.014v-6.873h-6.014V208.46h6.014v-6.873h-6.014V194.7h6.014V187.83h-6.014v-6.887h6.014Z" fill="#29a555" fill-rule="evenodd"/>
        <path id="Path_197" data-name="Path 197" d="M2257.513,254.174h7.073V201.761l-1.79,2.5-5.133,7.173h-3.546v7.734h3.4Z" fill="#29a555" fill-rule="evenodd"/>
        <path id="Path_198" data-name="Path 198" d="M2185.632,174.782v79.392H2173.4V233.3h4.972v-8.378H2173.4V204.039h4.972v-8.378H2173.4V174.782h12.234Z" fill="#29a555" fill-rule="evenodd"/>
        <path id="Path_199" data-name="Path 199" d="M2212.526,174.782h10.02v20.879h-4.972v8.378h4.972v20.879h-4.972V233.3h4.972v20.878h-10.02Z" fill="#29a555" fill-rule="evenodd"/>
      </g>
    </g>
    <g id="Group_37" data-name="Group 37">
      <path id="Path_200" data-name="Path 200" d="M2108.326,138.167h6.014a1.5,1.5,0,0,1,1.5,1.5v6.886a1.5,1.5,0,0,1-1.5,1.5h-4.514v3.872h4.514a1.5,1.5,0,0,1,1.5,1.5v6.887a1.5,1.5,0,0,1-1.5,1.5h-4.514v3.872h4.514a1.5,1.5,0,0,1,1.5,1.5v6.886a1.5,1.5,0,0,1-1.5,1.5h-4.514v3.872h4.514a1.5,1.5,0,0,1,1.5,1.5v6.887a1.5,1.5,0,0,1-1.5,1.5h-4.514V193.2h4.514a1.5,1.5,0,0,1,1.5,1.5v6.885a1.5,1.5,0,0,1-1.5,1.5h-4.514v3.873h4.514a1.5,1.5,0,0,1,1.5,1.5v6.886a1.5,1.5,0,0,1-1.5,1.5h-4.514v3.872h4.514a1.5,1.5,0,0,1,1.5,1.5V229.1a1.5,1.5,0,0,1-1.5,1.5h-4.514v3.873h4.514a1.5,1.5,0,0,1,1.5,1.5v6.886a1.5,1.5,0,0,1-1.5,1.5h-4.514v9.811a1.5,1.5,0,0,1-1.5,1.5h-45.541a1.5,1.5,0,0,1-1.5-1.5v-9.811h-4.514a1.5,1.5,0,0,1-1.5-1.5v-6.886a1.5,1.5,0,0,1,1.5-1.5h4.514V230.6h-4.514a1.5,1.5,0,0,1-1.5-1.5v-6.886a1.5,1.5,0,0,1,1.5-1.5h4.514v-3.872h-4.514a1.5,1.5,0,0,1-1.5-1.5V208.46a1.5,1.5,0,0,1,1.5-1.5h4.514v-3.873h-4.514a1.5,1.5,0,0,1-1.5-1.5V194.7a1.5,1.5,0,0,1,1.5-1.5h4.514V189.33h-4.514a1.5,1.5,0,0,1-1.5-1.5v-6.887a1.5,1.5,0,0,1,1.5-1.5h4.514v-3.872h-4.514a1.5,1.5,0,0,1-1.5-1.5v-6.886a1.5,1.5,0,0,1,1.5-1.5h4.514v-3.872h-4.514a1.5,1.5,0,0,1-1.5-1.5v-6.887a1.5,1.5,0,0,1,1.5-1.5h4.514v-3.872h-4.514a1.5,1.5,0,0,1-1.5-1.5v-6.886a1.5,1.5,0,0,1,1.5-1.5h51.555Zm4.514,3h-54.569v3.885h4.514a1.5,1.5,0,0,1,1.5,1.5v6.873a1.5,1.5,0,0,1-1.5,1.5h-4.514v3.886h4.514a1.5,1.5,0,0,1,1.5,1.5v6.872a1.5,1.5,0,0,1-1.5,1.5h-4.514v3.886h4.514a1.5,1.5,0,0,1,1.5,1.5v6.872a1.5,1.5,0,0,1-1.5,1.5h-4.514v3.886h4.514a1.5,1.5,0,0,1,1.5,1.5V194.7a1.5,1.5,0,0,1-1.5,1.5h-4.514v3.885h4.514a1.5,1.5,0,0,1,1.5,1.5v6.873a1.5,1.5,0,0,1-1.5,1.5h-4.514v3.886h4.514a1.5,1.5,0,0,1,1.5,1.5v6.872a1.5,1.5,0,0,1-1.5,1.5h-4.514V227.6h4.514a1.5,1.5,0,0,1,1.5,1.5v6.873a1.5,1.5,0,0,1-1.5,1.5h-4.514v3.886h4.514a1.5,1.5,0,0,1,1.5,1.5v9.811h42.541v-9.811a1.5,1.5,0,0,1,1.5-1.5h4.514v-3.886h-4.514a1.5,1.5,0,0,1-1.5-1.5V229.1a1.5,1.5,0,0,1,1.5-1.5h4.514v-3.886h-4.514a1.5,1.5,0,0,1-1.5-1.5v-6.872a1.5,1.5,0,0,1,1.5-1.5h4.514V209.96h-4.514a1.5,1.5,0,0,1-1.5-1.5v-6.873a1.5,1.5,0,0,1,1.5-1.5h4.514V196.2h-4.514a1.5,1.5,0,0,1-1.5-1.5V187.83a1.5,1.5,0,0,1,1.5-1.5h4.514v-3.886h-4.514a1.5,1.5,0,0,1-1.5-1.5v-6.872a1.5,1.5,0,0,1,1.5-1.5h4.514v-3.886h-4.514a1.5,1.5,0,0,1-1.5-1.5v-6.872a1.5,1.5,0,0,1,1.5-1.5h4.514v-3.886h-4.514a1.5,1.5,0,0,1-1.5-1.5v-6.873a1.5,1.5,0,0,1,1.5-1.5h4.514Z" fill="#1a1818" fill-rule="evenodd"/>
      <path id="Path_201" data-name="Path 201" d="M2144.534,88.9V254.174a1.5,1.5,0,0,1-1.5,1.5h-44.8a1.5,1.5,0,0,1-1.5-1.5V130.036a1.5,1.5,0,0,1,.555-1.165L2142.02,87.8a1.5,1.5,0,0,1,2.511,1.1Zm-3,163.776V92.308l-41.8,38.383V252.674Z" fill="#1a1818" fill-rule="evenodd"/>
      <path id="Path_202" data-name="Path 202" d="M2097.292,103l44.728-41.076a1.5,1.5,0,0,1,2.511,1.1h0V77.985a1.5,1.5,0,0,1-.555,1.165l-44.728,41.075a1.5,1.5,0,0,1-2.511-1.1h0V104.161a1.5,1.5,0,0,1,.555-1.164Zm44.242-36.564-41.8,38.383v10.9l41.8-38.383Z" fill="#1a1818" fill-rule="evenodd"/>
      <path id="Path_203" data-name="Path 203" d="M1989.787,123.4h5.474v-8.85a1.5,1.5,0,0,1,1.5-1.5h4.575v-5.475a1.5,1.5,0,0,1,1.5-1.5h4.462V101.24a47.205,47.205,0,0,1-8.208-1.1c-3.006-.74-4.814-1.956-4.814-3.534s1.808-2.793,4.814-3.533a47.3,47.3,0,0,1,8.208-1.1v-1.8a20.81,20.81,0,0,1-4.687-1.06c-2.219-.816-3.554-2.066-3.554-3.34s1.343-2.544,3.573-3.383a20.35,20.35,0,0,1,4.668-1.084V77.068a8.7,8.7,0,1,1,10.618-13.612l.006,0a8.7,8.7,0,0,1-1.68,13.607v4.245a20.36,20.36,0,0,1,4.669,1.084c2.229.839,3.572,2.118,3.572,3.383s-1.335,2.524-3.554,3.34a20.8,20.8,0,0,1-4.687,1.06v1.8a47.29,47.29,0,0,1,8.208,1.1c3.006.74,4.814,1.955,4.814,3.533s-1.808,2.794-4.814,3.534a47.192,47.192,0,0,1-8.208,1.1v4.836h4.462a1.5,1.5,0,0,1,1.5,1.5v5.475h4.575a1.5,1.5,0,0,1,1.5,1.5v8.85h10.425a1.5,1.5,0,0,1,1.5,1.5v10.351a1.5,1.5,0,0,1-1.5,1.5h-3.451V254.174a1.5,1.5,0,0,1-1.5,1.5h-43.968a1.5,1.5,0,0,1-1.5-1.5V136.752h-3.451a1.5,1.5,0,0,1-1.5-1.5V124.9a1.5,1.5,0,0,1,1.5-1.5Zm6.975,3h-10.426v7.351h3.451a1.5,1.5,0,0,1,1.5,1.5V252.674h40.968V135.252a1.5,1.5,0,0,1,1.5-1.5h3.45V126.4H2026.78a1.5,1.5,0,0,1-1.5-1.5v-8.85H2020.7a1.5,1.5,0,0,1-1.5-1.5v-5.475h-4.462a1.5,1.5,0,0,1-1.5-1.5v-7.76h.005a1.5,1.5,0,0,1,1.442-1.494,47.647,47.647,0,0,0,9.046-1.086c1.578-.389,2.529-.625,2.529-.628s-.95-.238-2.529-.627A47.418,47.418,0,0,0,2014.8,94.9h-.061a1.5,1.5,0,0,1-1.5-1.5V88.812h0a1.5,1.5,0,0,1,1.4-1.494,19.12,19.12,0,0,0,5.25-1.011c.989-.364,1.584-.492,1.584-.527,0-.019-.611-.2-1.626-.582a18.352,18.352,0,0,0-5.111-1.019h0a1.5,1.5,0,0,1-1.5-1.5V76.167h0a1.5,1.5,0,0,1,.883-1.366,5.7,5.7,0,1,0-4.783-.031,1.5,1.5,0,0,1,.954,1.4v6.512h0a1.5,1.5,0,0,1-1.409,1.494,18.468,18.468,0,0,0-5.2,1.025c-1.015.382-1.626.563-1.626.582,0,.035.6.163,1.585.527a19,19,0,0,0,5.158,1,1.5,1.5,0,0,1,1.5,1.5V93.4h-.005a1.5,1.5,0,0,1-1.442,1.494,47.729,47.729,0,0,0-9.046,1.086c-1.579.389-2.529.625-2.529.627s.951.239,2.53.628a47.407,47.407,0,0,0,8.931,1.081h.061a1.5,1.5,0,0,1,1.5,1.5v7.76a1.5,1.5,0,0,1-1.5,1.5h-4.462v5.475a1.5,1.5,0,0,1-1.5,1.5h-4.575v8.85A1.5,1.5,0,0,1,1996.762,126.4Z" fill="#1a1818" fill-rule="evenodd"/>
      <path id="Path_204" data-name="Path 204" d="M2000.995,177.968h74.66a1.5,1.5,0,0,1,1.5,1.5v10.465a1.5,1.5,0,0,1-1.5,1.5h-3.244v62.74a1.5,1.5,0,0,1-1.5,1.5,1.337,1.337,0,0,1-.142-.007l-44.986-.239a1.494,1.494,0,0,1-1.488-1.5v-.012l.273-22.116v-.023h0c.353-12.354-1.847-23.645-6.14-32.612-4.169-8.706-10.31-15.2-17.989-18.309a1.5,1.5,0,0,1,.556-2.885v0Zm30.7,3h-24.644c5.852,3.848,10.615,9.679,14.077,16.908,4.495,9.388,6.8,21.154,6.432,33.982h0l-.254,20.59,42.109.224V189.933a1.5,1.5,0,0,1,1.5-1.5h3.244v-7.465h-42.464Z" fill="#1a1818" fill-rule="evenodd"/>
      <path id="Path_205" data-name="Path 205" d="M2097.292,78.7l44.728-41.076a1.5,1.5,0,0,1,2.511,1.1h0V53.685a1.5,1.5,0,0,1-.555,1.165l-44.728,41.075a1.5,1.5,0,0,1-2.511-1.1h0V79.861a1.5,1.5,0,0,1,.555-1.164Zm44.242-36.564-41.8,38.383v10.9l41.8-38.383Z" fill="#1a1818" fill-rule="evenodd"/>
      <path id="Path_206" data-name="Path 206" d="M2241.928,126.823V254.174a1.5,1.5,0,0,1-1.5,1.5h-22a1.5,1.5,0,0,1-1.5-1.5V155.506a1.491,1.491,0,0,1,.373-.99l21.934-28.6a1.5,1.5,0,0,1,2.686.909Zm-3,125.851V131.238l-19,24.772v96.664Z" fill="#1a1818" fill-rule="evenodd"/>
      <path id="Path_207" data-name="Path 207" d="M2249.993,131.238V252.674h19V156.01l-19-24.772Zm-3,122.936V126.823h0a1.5,1.5,0,0,1,2.687-.909l21.933,28.6a1.491,1.491,0,0,1,.374.99v98.668a1.5,1.5,0,0,1-1.5,1.5h-22A1.5,1.5,0,0,1,2246.993,254.174Z" fill="#1a1818" fill-rule="evenodd"/>
      <path id="Path_208" data-name="Path 208" d="M2245.937,76.731l4.526,23.768L2255,124.3a1.5,1.5,0,0,1-2.644,1.2l-7.89-8.813-7.951,8.881a1.494,1.494,0,0,1-2.582-1.271h0l4.532-23.8,4.532-23.8a1.5,1.5,0,0,1,2.947.031Zm1.584,24.319-3.06-16.075L2241.4,101.05l-3.526,18.518,5.474-6.115a1.642,1.642,0,0,1,.117-.117,1.494,1.494,0,0,1,2.11.117l5.474,6.115Z" fill="#1a1818" fill-rule="evenodd"/>
      <path id="Path_209" data-name="Path 209" d="M2263.567,212.935h-2.046v4.734h1.9a1.5,1.5,0,0,1,1.5,1.5v33.5h41.816v-33.5a1.5,1.5,0,0,1,1.5-1.5h1.9v-4.734h-2.046v0a1.493,1.493,0,0,1-1.219-.628l-5.132-7.173-4.718-6.593-4.7,6.567-.031.044-5.242,7.154a1.46,1.46,0,0,1-.335.34,1.5,1.5,0,0,1-2.092-.322l-5.25-7.172h0l-.013-.017-4.718-6.593-4.717,6.593-5.072,7.088a1.5,1.5,0,0,1-1.28.717Zm-.766-3,4.68-6.54,5.936-8.3a1.5,1.5,0,0,1,2.457.026l5.906,8.253h0l4.044,5.524,4.047-5.524.012-.015,5.913-8.264a1.5,1.5,0,0,1,2.457.026l5.918,8.27,4.68,6.54h2.78a1.5,1.5,0,0,1,1.5,1.5v7.734a1.5,1.5,0,0,1-1.5,1.5h-1.9v33.5a1.5,1.5,0,0,1-1.5,1.5h-44.817a1.5,1.5,0,0,1-1.5-1.5v-33.5h-1.9a1.5,1.5,0,0,1-1.5-1.5v-7.734a1.5,1.5,0,0,1,1.5-1.5Z" fill="#1a1818" fill-rule="evenodd"/>
      <path id="Path_210" data-name="Path 210" d="M2285.826,181.565a8.669,8.669,0,0,1,6.146,2.548l.005,0a8.7,8.7,0,1,1-12.3,12.3l0,0,0,0,0,0a8.7,8.7,0,0,1,6.155-14.842Zm4.033,4.666a5.7,5.7,0,0,0-8.069,8.064l0,.006a5.7,5.7,0,0,0,8.064-8.07Z" fill="#1a1818" fill-rule="evenodd"/>
      <path id="Path_211" data-name="Path 211" d="M2134.027,125.941h21.44a1.5,1.5,0,0,1,1.5,1.5V227.594a5.35,5.35,0,0,0,1.686,3.868,5.954,5.954,0,0,0,4.128,1.636h0a5.958,5.958,0,0,0,4.129-1.636,5.348,5.348,0,0,0,1.685-3.868V127.441a1.5,1.5,0,0,1,1.5-1.5h21.441a1.5,1.5,0,0,1,1.5,1.5V254.174a1.5,1.5,0,0,1-1.5,1.5h-57.51a1.5,1.5,0,0,1-1.5-1.5V127.441a1.5,1.5,0,0,1,1.5-1.5Zm19.94,3h-18.44V252.674h54.51V128.941H2171.6v98.653a8.328,8.328,0,0,1-2.611,6.025,8.962,8.962,0,0,1-6.2,2.479h0a8.959,8.959,0,0,1-6.2-2.479,8.328,8.328,0,0,1-2.612-6.025Z" fill="#1a1818" fill-rule="evenodd"/>
      <path id="Path_212" data-name="Path 212" d="M2179.3,231.8h3.472v-5.378H2179.3a1.5,1.5,0,0,1-1.5-1.5V204.039a1.5,1.5,0,0,1,1.5-1.5h3.472v-5.378H2179.3a1.5,1.5,0,0,1-1.5-1.5V174.782a1.5,1.5,0,0,1,1.5-1.5h20.249a1.5,1.5,0,0,1,1.5,1.5V178.4h5.648v-3.618a1.5,1.5,0,0,1,1.5-1.5h20.249a1.5,1.5,0,0,1,1.5,1.5v20.879a1.5,1.5,0,0,1-1.5,1.5h-3.472v5.378h3.472a1.5,1.5,0,0,1,1.5,1.5v20.878a1.5,1.5,0,0,1-1.5,1.5h-3.472V231.8h3.472a1.5,1.5,0,0,1,1.5,1.5v20.878a1.5,1.5,0,0,1-1.5,1.5H2179.3a1.5,1.5,0,0,1-1.5-1.5V233.3a1.5,1.5,0,0,1,1.5-1.5Zm4.973,3H2180.8v17.878h46.146V234.8h-3.472a1.5,1.5,0,0,1-1.5-1.5v-8.379a1.5,1.5,0,0,1,1.5-1.5h3.472V205.539h-3.472a1.5,1.5,0,0,1-1.5-1.5v-8.378a1.5,1.5,0,0,1,1.5-1.5h3.472V176.282H2209.7V179.9a1.5,1.5,0,0,1-1.5,1.5h-8.649a1.5,1.5,0,0,1-1.5-1.5v-3.618H2180.8V194.16h3.472a1.5,1.5,0,0,1,1.5,1.5v8.378a1.5,1.5,0,0,1-1.5,1.5H2180.8v17.878h3.472a1.5,1.5,0,0,1,1.5,1.5V233.3A1.5,1.5,0,0,1,2184.276,234.8Z" fill="#1a1818" fill-rule="evenodd"/>
      <path id="Path_213" data-name="Path 213" d="M1940.774,195.372h14.643v-8.281a1.5,1.5,0,0,1,1.5-1.5h5.459l1.887-9.681,3.222-16.533a1.5,1.5,0,0,1,2.945.02l3.218,16.513,1.887,9.681h5.459a1.5,1.5,0,0,1,1.5,1.5v8.281h14.643a1.5,1.5,0,0,1,1.5,1.5v57.3a1.5,1.5,0,0,1-1.5,1.5h-16.143a1.5,1.5,0,0,1-1.5-1.5V224.987a9.638,9.638,0,0,0-3.067-6.994,10.95,10.95,0,0,0-14.941,0,9.639,9.639,0,0,0-3.068,6.994v29.187a1.5,1.5,0,0,1-1.5,1.5h-16.143a1.5,1.5,0,0,1-1.5-1.5v-57.3a1.5,1.5,0,0,1,1.5-1.5Zm16.143,3h-14.643v54.3h13.143V224.987a12.618,12.618,0,0,1,4.005-9.163,13.926,13.926,0,0,1,19.067,0,12.618,12.618,0,0,1,4.005,9.163v27.687h13.143v-54.3h-14.643a1.5,1.5,0,0,1-1.5-1.5v-8.28H1974.3v0a1.5,1.5,0,0,1-1.47-1.216l-2.125-10.9-1.751-8.985-1.751,8.985-2.107,10.814a1.5,1.5,0,0,1-1.487,1.3h-5.193v8.28A1.5,1.5,0,0,1,1956.917,198.373Z" fill="#1a1818" fill-rule="evenodd"/>
    </g>
  </g>
</svg>